<?xml version="1.0" standalone="no"?>
 <!DOCTYPE svg PUBLIC "-//W3C//DTD SVG 1.1//EN" 
 "http://www.w3.org/Graphics/SVG/1.1/DTD/svg11.dtd"> 
<svg xmlns="http://www.w3.org/2000/svg" version="1.1" 
    width="29.7002cm" height="21.0007cm" viewBox="0 0 116930 82680 ">
<title>SVG Picture created as TAP-Edge.Cuts.svg date 2017/04/20 14:54:16 </title>
  <desc>Picture generated by PCBNEW </desc>
<g style="fill:#000000; fill-opacity:1;stroke:#000000; stroke-opacity:1;
stroke-linecap:round; stroke-linejoin:round; "
 transform="translate(0 0) scale(1 1)">
</g>
<g style="fill:#000000; fill-opacity:0.0; 
stroke:#000000; stroke-width:-0.000393701; stroke-opacity:1; 
stroke-linecap:round; stroke-linejoin:round;">
</g>
<g style="fill:#000000; fill-opacity:0.0; 
stroke:#000000; stroke-width:59.0551; stroke-opacity:1; 
stroke-linecap:round; stroke-linejoin:round;">
<circle cx="73180" cy="50000" r="656.168" /> 
<path d="M74164 50000
L72195 50000
" />
<path d="M73180 49015
L73180 50984
" />
<circle cx="73180" cy="27000" r="656.168" /> 
<path d="M74164 27000
L72195 27000
" />
<path d="M73180 26015
L73180 27984
" />
<circle cx="50180" cy="27000" r="656.168" /> 
<path d="M51164 27000
L49195 27000
" />
<path d="M50180 26015
L50180 27984
" />
<circle cx="50180" cy="50000" r="656.168" /> 
<path d="M51164 50000
L49195 50000
" />
<path d="M50180 49015
L50180 50984
" />
<path d="M50680 49500
L50680 27500
" />
<path d="M72680 49500
L50680 49500
" />
<path d="M72680 27500
L72680 49500
" />
<path d="M72680 27500
L50681 27500
" />
</g> 
</svg>
