<?xml version="1.0" standalone="no"?>
 <!DOCTYPE svg PUBLIC "-//W3C//DTD SVG 1.1//EN" 
 "http://www.w3.org/Graphics/SVG/1.1/DTD/svg11.dtd"> 
<svg xmlns="http://www.w3.org/2000/svg" version="1.1" 
    width="29.7002cm" height="21.0007cm" viewBox="0 0 116930 82680 ">
<title>SVG Picture created as TAP-drl_map.svg date 2017/04/20 16:01:04 </title>
  <desc>Picture generated by PCBNEW </desc>
<g style="fill:#000000; fill-opacity:1;stroke:#000000; stroke-opacity:1;
stroke-linecap:round; stroke-linejoin:round; "
 transform="translate(0 0) scale(1 1)">
</g>
<g style="fill:#000000; fill-opacity:0.0; 
stroke:#000000; stroke-width:-0.000393701; stroke-opacity:1; 
stroke-linecap:round; stroke-linejoin:round;">
</g>
<g style="fill:#000000; fill-opacity:0.0; 
stroke:#000000; stroke-width:59.0551; stroke-opacity:1; 
stroke-linecap:round; stroke-linejoin:round;">
<path d="M66250 49500
L66250 27500
" />
<path d="M44250 49500
L66250 49500
" />
<path d="M44250 27500
L44250 49500
" />
<path d="M44250 27500
L66248 27500
" />
</g>
<g style="fill:#000000; fill-opacity:0.0; 
stroke:#000000; stroke-width:78.7402; stroke-opacity:1; 
stroke-linecap:round; stroke-linejoin:round;">
<path d="M46072 42822
L46427 43177
" />
<path d="M46427 42822
L46072 43177
" />
<path d="M46572 41822
L46927 42177
" />
<path d="M46927 41822
L46572 42177
" />
<path d="M47072 42822
L47427 43177
" />
<path d="M47427 42822
L47072 43177
" />
<path d="M47322 37822
L47677 38177
" />
<path d="M47677 37822
L47322 38177
" />
<path d="M47572 41822
L47927 42177
" />
<path d="M47927 41822
L47572 42177
" />
<path d="M48072 42822
L48427 43177
" />
<path d="M48427 42822
L48072 43177
" />
<path d="M48572 41822
L48927 42177
" />
<path d="M48927 41822
L48572 42177
" />
<path d="M49072 42822
L49427 43177
" />
<path d="M49427 42822
L49072 43177
" />
<path d="M49572 41822
L49927 42177
" />
<path d="M49927 41822
L49572 42177
" />
<path d="M51822 36322
L52177 36677
" />
<path d="M52177 36322
L51822 36677
" />
<path d="M52322 38822
L52677 39177
" />
<path d="M52677 38822
L52322 39177
" />
<path d="M52322 39822
L52677 40177
" />
<path d="M52677 39822
L52322 40177
" />
<path d="M52322 40822
L52677 41177
" />
<path d="M52677 40822
L52322 41177
" />
<path d="M53322 34822
L53677 35177
" />
<path d="M53677 34822
L53322 35177
" />
<path d="M53322 36322
L53677 36677
" />
<path d="M53677 36322
L53322 36677
" />
<path d="M53822 33822
L54177 34177
" />
<path d="M54177 33822
L53822 34177
" />
<path d="M53822 37822
L54177 38177
" />
<path d="M54177 37822
L53822 38177
" />
<path d="M54322 34822
L54677 35177
" />
<path d="M54677 34822
L54322 35177
" />
<path d="M54322 36822
L54677 37177
" />
<path d="M54677 36822
L54322 37177
" />
<path d="M54322 40822
L54677 41177
" />
<path d="M54677 40822
L54322 41177
" />
<path d="M54822 33822
L55177 34177
" />
<path d="M55177 33822
L54822 34177
" />
<path d="M55322 34822
L55677 35177
" />
<path d="M55677 34822
L55322 35177
" />
<path d="M55322 37822
L55677 38177
" />
<path d="M55677 37822
L55322 38177
" />
<path d="M55322 39822
L55677 40177
" />
<path d="M55677 39822
L55322 40177
" />
<path d="M55822 33822
L56177 34177
" />
<path d="M56177 33822
L55822 34177
" />
<path d="M55822 42822
L56177 43177
" />
<path d="M56177 42822
L55822 43177
" />
<path d="M56322 34822
L56677 35177
" />
<path d="M56677 34822
L56322 35177
" />
<path d="M56322 38822
L56677 39177
" />
<path d="M56677 38822
L56322 39177
" />
<path d="M56822 33822
L57177 34177
" />
<path d="M57177 33822
L56822 34177
" />
<path d="M57322 36822
L57677 37177
" />
<path d="M57677 36822
L57322 37177
" />
<path d="M57322 37822
L57677 38177
" />
<path d="M57677 37822
L57322 38177
" />
<path d="M57322 42822
L57677 43177
" />
<path d="M57677 42822
L57322 43177
" />
<path d="M60572 42822
L60927 43177
" />
<path d="M60927 42822
L60572 43177
" />
<path d="M61072 41822
L61427 42177
" />
<path d="M61427 41822
L61072 42177
" />
<path d="M61572 42822
L61927 43177
" />
<path d="M61927 42822
L61572 43177
" />
<path d="M62072 41822
L62427 42177
" />
<path d="M62427 41822
L62072 42177
" />
<path d="M62572 42822
L62927 43177
" />
<path d="M62927 42822
L62572 43177
" />
<path d="M63072 41822
L63427 42177
" />
<path d="M63427 41822
L63072 42177
" />
<path d="M63572 42822
L63927 43177
" />
<path d="M63927 42822
L63572 43177
" />
<path d="M64072 41822
L64427 42177
" />
<path d="M64427 41822
L64072 42177
" />
<circle cx="45045.3" cy="44200.8" r="309.055" /> 
<circle cx="51049.2" cy="44200.8" r="309.055" /> 
<circle cx="52200.8" cy="32799.2" r="309.055" /> 
<circle cx="58204.7" cy="32799.2" r="309.055" /> 
<circle cx="59545.3" cy="44200.8" r="309.055" /> 
<circle cx="65549.2" cy="44200.8" r="309.055" /> 
<path d="M45750 44909
L45750 46090
" />
<path d="M45159 45500
L46340 45500
" />
<path d="M50250 44909
L50250 46090
" />
<path d="M49659 45500
L50840 45500
" />
<path d="M53000 30909
L53000 32090
" />
<path d="M52409 31500
L53590 31500
" />
<path d="M57500 30909
L57500 32090
" />
<path d="M56909 31500
L58090 31500
" />
<path d="M60250 44909
L60250 46090
" />
<path d="M59659 45500
L60840 45500
" />
<path d="M64750 44909
L64750 46090
" />
<path d="M64159 45500
L65340 45500
" />
<polyline fill="none;"
points="47237,30487
47237,29512
46262,29512
46262,30487
47237,30487
" /> 
<polyline fill="none;"
points="55687,47687
55687,46712
54712,46712
54712,47687
55687,47687
" /> 
<polyline fill="none;"
points="64237,30487
64237,29512
63262,29512
63262,30487
64237,30487
" /> 
</g>
<g style="fill:#000000; fill-opacity:0.0; 
stroke:#000000; stroke-width:118.11; stroke-opacity:1; 
stroke-linecap:round; stroke-linejoin:round;">
<path d="M45289 51363
L45289 50181
L45570 50181
L45739 50238
L45851 50350
L45907 50463
L45964 50688
L45964 50856
L45907 51081
L45851 51194
L45739 51306
L45570 51363
L45289 51363
" />
<path d="M46470 51363
L46470 50575
" />
<path d="M46470 50800
L46526 50688
L46582 50631
L46695 50575
L46807 50575
" />
<path d="M47201 51363
L47201 50575
" />
<path d="M47201 50181
L47145 50238
L47201 50294
L47257 50238
L47201 50181
L47201 50294
" />
<path d="M47932 51363
L47820 51306
L47763 51194
L47763 50181
" />
<path d="M48551 51363
L48438 51306
L48382 51194
L48382 50181
" />
<path d="M49901 51363
L49901 50181
L50294 51025
L50688 50181
L50688 51363
" />
<path d="M51757 51363
L51757 50744
L51700 50631
L51588 50575
L51363 50575
L51250 50631
" />
<path d="M51757 51306
L51644 51363
L51363 51363
L51250 51306
L51194 51194
L51194 51081
L51250 50969
L51363 50913
L51644 50913
L51757 50856
" />
<path d="M52319 50575
L52319 51756
" />
<path d="M52319 50631
L52431 50575
L52656 50575
L52769 50631
L52825 50688
L52881 50800
L52881 51138
L52825 51250
L52769 51306
L52656 51363
L52431 51363
L52319 51306
" />
<path d="M53388 51250
L53444 51306
L53388 51363
L53331 51306
L53388 51250
L53388 51363
" />
<path d="M53388 50631
L53444 50688
L53388 50744
L53331 50688
L53388 50631
L53388 50744
" />
<path d="M43866 53131
L44220 53486
" />
<path d="M44220 53131
L43866 53486
" />
<path d="M45514 52662
L45626 52662
L45739 52718
L45795 52774
L45851 52887
L45907 53112
L45907 53393
L45851 53618
L45795 53730
L45739 53787
L45626 53843
L45514 53843
L45401 53787
L45345 53730
L45289 53618
L45232 53393
L45232 53112
L45289 52887
L45345 52774
L45401 52718
L45514 52662
" />
<path d="M46413 53730
L46470 53787
L46413 53843
L46357 53787
L46413 53730
L46413 53843
" />
<path d="M47032 53843
L47257 53843
L47370 53787
L47426 53730
L47538 53562
L47595 53337
L47595 52887
L47538 52774
L47482 52718
L47370 52662
L47145 52662
L47032 52718
L46976 52774
L46920 52887
L46920 53168
L46976 53280
L47032 53337
L47145 53393
L47370 53393
L47482 53337
L47538 53280
L47595 53168
" />
<path d="M48326 52662
L48438 52662
L48551 52718
L48607 52774
L48663 52887
L48719 53112
L48719 53393
L48663 53618
L48607 53730
L48551 53787
L48438 53843
L48326 53843
L48213 53787
L48157 53730
L48101 53618
L48044 53393
L48044 53112
L48101 52887
L48157 52774
L48213 52718
L48326 52662
" />
<path d="M49226 53843
L49226 53055
" />
<path d="M49226 53168
L49282 53112
L49394 53055
L49563 53055
L49676 53112
L49732 53224
L49732 53843
" />
<path d="M49732 53224
L49788 53112
L49901 53055
L50069 53055
L50182 53112
L50238 53224
L50238 53843
" />
<path d="M50800 53843
L50800 53055
" />
<path d="M50800 53168
L50857 53112
L50969 53055
L51138 53055
L51250 53112
L51307 53224
L51307 53843
" />
<path d="M51307 53224
L51363 53112
L51475 53055
L51644 53055
L51757 53112
L51813 53224
L51813 53843
" />
<path d="M54119 52606
L53106 54124
" />
<path d="M55637 52662
L55750 52662
L55862 52718
L55919 52774
L55975 52887
L56031 53112
L56031 53393
L55975 53618
L55919 53730
L55862 53787
L55750 53843
L55637 53843
L55525 53787
L55469 53730
L55412 53618
L55356 53393
L55356 53112
L55412 52887
L55469 52774
L55525 52718
L55637 52662
" />
<path d="M56537 53730
L56593 53787
L56537 53843
L56481 53787
L56537 53730
L56537 53843
" />
<path d="M57325 52662
L57437 52662
L57550 52718
L57606 52774
L57662 52887
L57718 53112
L57718 53393
L57662 53618
L57606 53730
L57550 53787
L57437 53843
L57325 53843
L57212 53787
L57156 53730
L57100 53618
L57043 53393
L57043 53112
L57100 52887
L57156 52774
L57212 52718
L57325 52662
" />
<path d="M58112 52662
L58843 52662
L58449 53112
L58618 53112
L58731 53168
L58787 53224
L58843 53337
L58843 53618
L58787 53730
L58731 53787
L58618 53843
L58281 53843
L58168 53787
L58112 53730
" />
<path d="M59912 52662
L59349 52662
L59293 53224
L59349 53168
L59462 53112
L59743 53112
L59856 53168
L59912 53224
L59968 53337
L59968 53618
L59912 53730
L59856 53787
L59743 53843
L59462 53843
L59349 53787
L59293 53730
" />
<path d="M60418 52662
L60418 52887
" />
<path d="M60868 52662
L60868 52887
" />
<path d="M62611 54293
L62555 54237
L62443 54068
L62386 53955
L62330 53787
L62274 53505
L62274 53280
L62330 52999
L62386 52830
L62443 52718
L62555 52549
L62611 52493
" />
<path d="M63568 53055
L63568 53843
" />
<path d="M63286 52606
L63005 53449
L63736 53449
" />
<path d="M64411 52662
L64524 52662
L64636 52718
L64692 52774
L64749 52887
L64805 53112
L64805 53393
L64749 53618
L64692 53730
L64636 53787
L64524 53843
L64411 53843
L64299 53787
L64242 53730
L64186 53618
L64130 53393
L64130 53112
L64186 52887
L64242 52774
L64299 52718
L64411 52662
" />
<path d="M66211 53843
L66211 52662
" />
<path d="M66717 53843
L66717 53224
L66661 53112
L66548 53055
L66380 53055
L66267 53112
L66211 53168
" />
<path d="M67448 53843
L67336 53787
L67280 53730
L67223 53618
L67223 53280
L67280 53168
L67336 53112
L67448 53055
L67617 53055
L67730 53112
L67786 53168
L67842 53280
L67842 53618
L67786 53730
L67730 53787
L67617 53843
L67448 53843
" />
<path d="M68517 53843
L68404 53787
L68348 53674
L68348 52662
" />
<path d="M69417 53787
L69304 53843
L69079 53843
L68967 53787
L68911 53674
L68911 53224
L68967 53112
L69079 53055
L69304 53055
L69417 53112
L69473 53224
L69473 53337
L68911 53449
" />
<path d="M69923 53787
L70035 53843
L70260 53843
L70373 53787
L70429 53674
L70429 53618
L70373 53505
L70260 53449
L70092 53449
L69979 53393
L69923 53280
L69923 53224
L69979 53112
L70092 53055
L70260 53055
L70373 53112
" />
<path d="M70823 54293
L70879 54237
L70992 54068
L71048 53955
L71104 53787
L71160 53505
L71160 53280
L71104 52999
L71048 52830
L70992 52718
L70879 52549
L70823 52493
" />
<circle cx="43911.4" cy="54868.1" r="309.055" /> 
<path d="M45907 55402
L45232 55402
" />
<path d="M45570 55402
L45570 54221
L45457 54390
L45345 54502
L45232 54558
" />
<path d="M46413 55289
L46470 55346
L46413 55402
L46357 55346
L46413 55289
L46413 55402
" />
<path d="M47538 54221
L46976 54221
L46920 54783
L46976 54727
L47088 54671
L47370 54671
L47482 54727
L47538 54783
L47595 54896
L47595 55177
L47538 55289
L47482 55346
L47370 55402
L47088 55402
L46976 55346
L46920 55289
" />
<path d="M47988 54221
L48776 54221
L48269 55402
" />
<path d="M49226 55402
L49226 54615
" />
<path d="M49226 54727
L49282 54671
L49394 54615
L49563 54615
L49676 54671
L49732 54783
L49732 55402
" />
<path d="M49732 54783
L49788 54671
L49901 54615
L50069 54615
L50182 54671
L50238 54783
L50238 55402
" />
<path d="M50800 55402
L50800 54615
" />
<path d="M50800 54727
L50857 54671
L50969 54615
L51138 54615
L51250 54671
L51307 54783
L51307 55402
" />
<path d="M51307 54783
L51363 54671
L51475 54615
L51644 54615
L51757 54671
L51813 54783
L51813 55402
" />
<path d="M54119 54165
L53106 55683
" />
<path d="M55637 54221
L55750 54221
L55862 54277
L55919 54333
L55975 54446
L56031 54671
L56031 54952
L55975 55177
L55919 55289
L55862 55346
L55750 55402
L55637 55402
L55525 55346
L55469 55289
L55412 55177
L55356 54952
L55356 54671
L55412 54446
L55469 54333
L55525 54277
L55637 54221
" />
<path d="M56537 55289
L56593 55346
L56537 55402
L56481 55346
L56537 55289
L56537 55402
" />
<path d="M57325 54221
L57437 54221
L57550 54277
L57606 54333
L57662 54446
L57718 54671
L57718 54952
L57662 55177
L57606 55289
L57550 55346
L57437 55402
L57325 55402
L57212 55346
L57156 55289
L57100 55177
L57043 54952
L57043 54671
L57100 54446
L57156 54333
L57212 54277
L57325 54221
" />
<path d="M58731 54221
L58506 54221
L58393 54277
L58337 54333
L58224 54502
L58168 54727
L58168 55177
L58224 55289
L58281 55346
L58393 55402
L58618 55402
L58731 55346
L58787 55289
L58843 55177
L58843 54896
L58787 54783
L58731 54727
L58618 54671
L58393 54671
L58281 54727
L58224 54783
L58168 54896
" />
<path d="M59293 54333
L59349 54277
L59462 54221
L59743 54221
L59856 54277
L59912 54333
L59968 54446
L59968 54558
L59912 54727
L59237 55402
L59968 55402
" />
<path d="M60418 54221
L60418 54446
" />
<path d="M60868 54221
L60868 54446
" />
<path d="M62611 55852
L62555 55796
L62443 55627
L62386 55514
L62330 55346
L62274 55064
L62274 54839
L62330 54558
L62386 54390
L62443 54277
L62555 54108
L62611 54052
" />
<path d="M63568 54221
L63343 54221
L63230 54277
L63174 54333
L63061 54502
L63005 54727
L63005 55177
L63061 55289
L63118 55346
L63230 55402
L63455 55402
L63568 55346
L63624 55289
L63680 55177
L63680 54896
L63624 54783
L63568 54727
L63455 54671
L63230 54671
L63118 54727
L63061 54783
L63005 54896
" />
<path d="M65086 55402
L65086 54221
" />
<path d="M65592 55402
L65592 54783
L65536 54671
L65424 54615
L65255 54615
L65142 54671
L65086 54727
" />
<path d="M66323 55402
L66211 55346
L66155 55289
L66098 55177
L66098 54839
L66155 54727
L66211 54671
L66323 54615
L66492 54615
L66605 54671
L66661 54727
L66717 54839
L66717 55177
L66661 55289
L66605 55346
L66492 55402
L66323 55402
" />
<path d="M67392 55402
L67280 55346
L67223 55233
L67223 54221
" />
<path d="M68292 55346
L68179 55402
L67955 55402
L67842 55346
L67786 55233
L67786 54783
L67842 54671
L67955 54615
L68179 54615
L68292 54671
L68348 54783
L68348 54896
L67786 55008
" />
<path d="M68798 55346
L68911 55402
L69136 55402
L69248 55346
L69304 55233
L69304 55177
L69248 55064
L69136 55008
L68967 55008
L68854 54952
L68798 54839
L68798 54783
L68854 54671
L68967 54615
L69136 54615
L69248 54671
" />
<path d="M69698 55852
L69754 55796
L69867 55627
L69923 55514
L69979 55346
L70035 55064
L70035 54839
L69979 54558
L69923 54390
L69867 54277
L69754 54108
L69698 54052
" />
<path d="M43629 55836
L43629 57017
" />
<path d="M43039 56427
L44220 56427
" />
<path d="M45176 55780
L45907 55780
L45514 56230
L45682 56230
L45795 56286
L45851 56342
L45907 56455
L45907 56736
L45851 56848
L45795 56905
L45682 56961
L45345 56961
L45232 56905
L45176 56848
" />
<path d="M46413 56848
L46470 56905
L46413 56961
L46357 56905
L46413 56848
L46413 56961
" />
<path d="M47201 55780
L47313 55780
L47426 55836
L47482 55892
L47538 56005
L47595 56230
L47595 56511
L47538 56736
L47482 56848
L47426 56905
L47313 56961
L47201 56961
L47088 56905
L47032 56848
L46976 56736
L46920 56511
L46920 56230
L46976 56005
L47032 55892
L47088 55836
L47201 55780
" />
<path d="M48326 55780
L48438 55780
L48551 55836
L48607 55892
L48663 56005
L48719 56230
L48719 56511
L48663 56736
L48607 56848
L48551 56905
L48438 56961
L48326 56961
L48213 56905
L48157 56848
L48101 56736
L48044 56511
L48044 56230
L48101 56005
L48157 55892
L48213 55836
L48326 55780
" />
<path d="M49226 56961
L49226 56174
" />
<path d="M49226 56286
L49282 56230
L49394 56174
L49563 56174
L49676 56230
L49732 56342
L49732 56961
" />
<path d="M49732 56342
L49788 56230
L49901 56174
L50069 56174
L50182 56230
L50238 56342
L50238 56961
" />
<path d="M50800 56961
L50800 56174
" />
<path d="M50800 56286
L50857 56230
L50969 56174
L51138 56174
L51250 56230
L51307 56342
L51307 56961
" />
<path d="M51307 56342
L51363 56230
L51475 56174
L51644 56174
L51757 56230
L51813 56342
L51813 56961
" />
<path d="M54119 55724
L53106 57242
" />
<path d="M55637 55780
L55750 55780
L55862 55836
L55919 55892
L55975 56005
L56031 56230
L56031 56511
L55975 56736
L55919 56848
L55862 56905
L55750 56961
L55637 56961
L55525 56905
L55469 56848
L55412 56736
L55356 56511
L55356 56230
L55412 56005
L55469 55892
L55525 55836
L55637 55780
" />
<path d="M56537 56848
L56593 56905
L56537 56961
L56481 56905
L56537 56848
L56537 56961
" />
<path d="M57718 56961
L57043 56961
" />
<path d="M57381 56961
L57381 55780
L57268 55949
L57156 56061
L57043 56117
" />
<path d="M58843 56961
L58168 56961
" />
<path d="M58506 56961
L58506 55780
L58393 55949
L58281 56061
L58168 56117
" />
<path d="M59518 56286
L59406 56230
L59349 56174
L59293 56061
L59293 56005
L59349 55892
L59406 55836
L59518 55780
L59743 55780
L59856 55836
L59912 55892
L59968 56005
L59968 56061
L59912 56174
L59856 56230
L59743 56286
L59518 56286
L59406 56342
L59349 56399
L59293 56511
L59293 56736
L59349 56848
L59406 56905
L59518 56961
L59743 56961
L59856 56905
L59912 56848
L59968 56736
L59968 56511
L59912 56399
L59856 56342
L59743 56286
" />
<path d="M60418 55780
L60418 56005
" />
<path d="M60868 55780
L60868 56005
" />
<path d="M62611 57411
L62555 57355
L62443 57186
L62386 57073
L62330 56905
L62274 56624
L62274 56399
L62330 56117
L62386 55949
L62443 55836
L62555 55667
L62611 55611
" />
<path d="M63568 55780
L63343 55780
L63230 55836
L63174 55892
L63061 56061
L63005 56286
L63005 56736
L63061 56848
L63118 56905
L63230 56961
L63455 56961
L63568 56905
L63624 56848
L63680 56736
L63680 56455
L63624 56342
L63568 56286
L63455 56230
L63230 56230
L63118 56286
L63061 56342
L63005 56455
" />
<path d="M65086 56961
L65086 55780
" />
<path d="M65592 56961
L65592 56342
L65536 56230
L65424 56174
L65255 56174
L65142 56230
L65086 56286
" />
<path d="M66323 56961
L66211 56905
L66155 56848
L66098 56736
L66098 56399
L66155 56286
L66211 56230
L66323 56174
L66492 56174
L66605 56230
L66661 56286
L66717 56399
L66717 56736
L66661 56848
L66605 56905
L66492 56961
L66323 56961
" />
<path d="M67392 56961
L67280 56905
L67223 56792
L67223 55780
" />
<path d="M68292 56905
L68179 56961
L67955 56961
L67842 56905
L67786 56792
L67786 56342
L67842 56230
L67955 56174
L68179 56174
L68292 56230
L68348 56342
L68348 56455
L67786 56567
" />
<path d="M68798 56905
L68911 56961
L69136 56961
L69248 56905
L69304 56792
L69304 56736
L69248 56624
L69136 56567
L68967 56567
L68854 56511
L68798 56399
L68798 56342
L68854 56230
L68967 56174
L69136 56174
L69248 56230
" />
<path d="M69698 57411
L69754 57355
L69867 57186
L69923 57073
L69979 56905
L70035 56624
L70035 56399
L69979 56117
L69923 55949
L69867 55836
L69754 55667
L69698 55611
" />
<polyline fill="none;"
points="44018,58607
44018,57632
43044,57632
43044,58607
44018,58607
" /> 
<path d="M45176 57473
L45907 57473
L45514 57923
L45682 57923
L45795 57979
L45851 58035
L45907 58148
L45907 58429
L45851 58541
L45795 58598
L45682 58654
L45345 58654
L45232 58598
L45176 58541
" />
<path d="M46413 58541
L46470 58598
L46413 58654
L46357 58598
L46413 58541
L46413 58654
" />
<path d="M47538 57473
L46976 57473
L46920 58035
L46976 57979
L47088 57923
L47370 57923
L47482 57979
L47538 58035
L47595 58148
L47595 58429
L47538 58541
L47482 58598
L47370 58654
L47088 58654
L46976 58598
L46920 58541
" />
<path d="M48326 57473
L48438 57473
L48551 57529
L48607 57585
L48663 57698
L48719 57923
L48719 58204
L48663 58429
L48607 58541
L48551 58598
L48438 58654
L48326 58654
L48213 58598
L48157 58541
L48101 58429
L48044 58204
L48044 57923
L48101 57698
L48157 57585
L48213 57529
L48326 57473
" />
<path d="M49226 58654
L49226 57866
" />
<path d="M49226 57979
L49282 57923
L49394 57866
L49563 57866
L49676 57923
L49732 58035
L49732 58654
" />
<path d="M49732 58035
L49788 57923
L49901 57866
L50069 57866
L50182 57923
L50238 58035
L50238 58654
" />
<path d="M50800 58654
L50800 57866
" />
<path d="M50800 57979
L50857 57923
L50969 57866
L51138 57866
L51250 57923
L51307 58035
L51307 58654
" />
<path d="M51307 58035
L51363 57923
L51475 57866
L51644 57866
L51757 57923
L51813 58035
L51813 58654
" />
<path d="M54119 57417
L53106 58935
" />
<path d="M55637 57473
L55750 57473
L55862 57529
L55919 57585
L55975 57698
L56031 57923
L56031 58204
L55975 58429
L55919 58541
L55862 58598
L55750 58654
L55637 58654
L55525 58598
L55469 58541
L55412 58429
L55356 58204
L55356 57923
L55412 57698
L55469 57585
L55525 57529
L55637 57473
" />
<path d="M56537 58541
L56593 58598
L56537 58654
L56481 58598
L56537 58541
L56537 58654
" />
<path d="M57718 58654
L57043 58654
" />
<path d="M57381 58654
L57381 57473
L57268 57642
L57156 57754
L57043 57810
" />
<path d="M58112 57473
L58843 57473
L58449 57923
L58618 57923
L58731 57979
L58787 58035
L58843 58148
L58843 58429
L58787 58541
L58731 58598
L58618 58654
L58281 58654
L58168 58598
L58112 58541
" />
<path d="M59518 57979
L59406 57923
L59349 57866
L59293 57754
L59293 57698
L59349 57585
L59406 57529
L59518 57473
L59743 57473
L59856 57529
L59912 57585
L59968 57698
L59968 57754
L59912 57866
L59856 57923
L59743 57979
L59518 57979
L59406 58035
L59349 58091
L59293 58204
L59293 58429
L59349 58541
L59406 58598
L59518 58654
L59743 58654
L59856 58598
L59912 58541
L59968 58429
L59968 58204
L59912 58091
L59856 58035
L59743 57979
" />
<path d="M60418 57473
L60418 57698
" />
<path d="M60868 57473
L60868 57698
" />
<path d="M62611 59104
L62555 59048
L62443 58879
L62386 58766
L62330 58598
L62274 58316
L62274 58091
L62330 57810
L62386 57642
L62443 57529
L62555 57360
L62611 57304
" />
<path d="M62949 57473
L63680 57473
L63286 57923
L63455 57923
L63568 57979
L63624 58035
L63680 58148
L63680 58429
L63624 58541
L63568 58598
L63455 58654
L63118 58654
L63005 58598
L62949 58541
" />
<path d="M65086 58654
L65086 57473
" />
<path d="M65592 58654
L65592 58035
L65536 57923
L65424 57866
L65255 57866
L65142 57923
L65086 57979
" />
<path d="M66323 58654
L66211 58598
L66155 58541
L66098 58429
L66098 58091
L66155 57979
L66211 57923
L66323 57866
L66492 57866
L66605 57923
L66661 57979
L66717 58091
L66717 58429
L66661 58541
L66605 58598
L66492 58654
L66323 58654
" />
<path d="M67392 58654
L67280 58598
L67223 58485
L67223 57473
" />
<path d="M68292 58598
L68179 58654
L67955 58654
L67842 58598
L67786 58485
L67786 58035
L67842 57923
L67955 57866
L68179 57866
L68292 57923
L68348 58035
L68348 58148
L67786 58260
" />
<path d="M68798 58598
L68911 58654
L69136 58654
L69248 58598
L69304 58485
L69304 58429
L69248 58316
L69136 58260
L68967 58260
L68854 58204
L68798 58091
L68798 58035
L68854 57923
L68967 57866
L69136 57866
L69248 57923
" />
<path d="M69698 59104
L69754 59048
L69867 58879
L69923 58766
L69979 58598
L70035 58316
L70035 58091
L69979 57810
L69923 57642
L69867 57529
L69754 57360
L69698 57304
" />
<path d="M71835 59104
L71779 59048
L71667 58879
L71610 58766
L71554 58598
L71498 58316
L71498 58091
L71554 57810
L71610 57642
L71667 57529
L71779 57360
L71835 57304
" />
<path d="M72285 57866
L72285 58654
" />
<path d="M72285 57979
L72341 57923
L72454 57866
L72623 57866
L72735 57923
L72791 58035
L72791 58654
" />
<path d="M73523 58654
L73410 58598
L73354 58541
L73298 58429
L73298 58091
L73354 57979
L73410 57923
L73523 57866
L73691 57866
L73804 57923
L73860 57979
L73916 58091
L73916 58429
L73860 58541
L73804 58598
L73691 58654
L73523 58654
" />
<path d="M74254 57866
L74704 57866
" />
<path d="M74422 57473
L74422 58485
L74479 58598
L74591 58654
L74704 58654
" />
<path d="M75997 57866
L75997 59048
" />
<path d="M75997 57923
L76110 57866
L76335 57866
L76447 57923
L76503 57979
L76560 58091
L76560 58429
L76503 58541
L76447 58598
L76335 58654
L76110 58654
L75997 58598
" />
<path d="M77235 58654
L77122 58598
L77066 58485
L77066 57473
" />
<path d="M78191 58654
L78191 58035
L78134 57923
L78022 57866
L77797 57866
L77685 57923
" />
<path d="M78191 58598
L78078 58654
L77797 58654
L77685 58598
L77628 58485
L77628 58373
L77685 58260
L77797 58204
L78078 58204
L78191 58148
" />
<path d="M78584 57866
L79034 57866
" />
<path d="M78753 57473
L78753 58485
L78809 58598
L78922 58654
L79034 58654
" />
<path d="M79878 58598
L79766 58654
L79541 58654
L79428 58598
L79372 58485
L79372 58035
L79428 57923
L79541 57866
L79766 57866
L79878 57923
L79934 58035
L79934 58148
L79372 58260
" />
<path d="M80947 58654
L80947 57473
" />
<path d="M80947 58598
L80834 58654
L80609 58654
L80497 58598
L80440 58541
L80384 58429
L80384 58091
L80440 57979
L80497 57923
L80609 57866
L80834 57866
L80947 57923
" />
<path d="M81397 59104
L81453 59048
L81565 58879
L81622 58766
L81678 58598
L81734 58316
L81734 58091
L81678 57810
L81622 57642
L81565 57529
L81453 57360
L81397 57304
" />
</g> 
</svg>
