<?xml version="1.0" standalone="no"?>
 <!DOCTYPE svg PUBLIC "-//W3C//DTD SVG 1.1//EN" 
 "http://www.w3.org/Graphics/SVG/1.1/DTD/svg11.dtd"> 
<svg xmlns="http://www.w3.org/2000/svg" version="1.1" 
    width="29.7002cm" height="21.0007cm" viewBox="0 0 116930 82680 ">
<title>SVG Picture created as TAP-Dwgs.User.svg date 2017/04/20 14:54:16 </title>
  <desc>Picture generated by PCBNEW </desc>
<g style="fill:#000000; fill-opacity:1;stroke:#000000; stroke-opacity:1;
stroke-linecap:round; stroke-linejoin:round; "
 transform="translate(0 0) scale(1 1)">
</g>
<g style="fill:#000000; fill-opacity:0.0; 
stroke:#000000; stroke-width:-0.000393701; stroke-opacity:1; 
stroke-linecap:round; stroke-linejoin:round;">
</g>
<g style="fill:#000000; fill-opacity:0.0; 
stroke:#000000; stroke-width:59.0551; stroke-opacity:1; 
stroke-linecap:round; stroke-linejoin:round;">
<circle cx="73180" cy="50000" r="656.168" /> 
<path d="M74164 50000
L72195 50000
" />
<path d="M73180 49015
L73180 50984
" />
</g>
<g style="fill:#000000; fill-opacity:0.0; 
stroke:#000000; stroke-width:118.11; stroke-opacity:1; 
stroke-linecap:round; stroke-linejoin:round;">
<path d="M45575 36362
L45575 36081
L45856 36053
L45828 36081
L45800 36137
L45800 36278
L45828 36334
L45856 36362
L45912 36390
L46053 36390
L46109 36362
L46137 36334
L46165 36278
L46165 36137
L46137 36081
L46109 36053
" />
<path d="M45828 36728
L45800 36672
L45771 36643
L45715 36615
L45687 36615
L45631 36643
L45603 36672
L45575 36728
L45575 36840
L45603 36897
L45631 36925
L45687 36953
L45715 36953
L45771 36925
L45800 36897
L45828 36840
L45828 36728
L45856 36672
L45884 36643
L45940 36615
L46053 36615
L46109 36643
L46137 36672
L46165 36728
L46165 36840
L46137 36897
L46109 36925
L46053 36953
L45940 36953
L45884 36925
L45856 36897
L45828 36840
" />
<path d="M46137 37234
L46165 37234
L46221 37206
L46250 37178
" />
<path d="M45771 37740
L46165 37740
" />
<path d="M45546 37600
L45968 37459
L45968 37825
" />
<path d="M45631 38021
L45603 38050
L45575 38106
L45575 38246
L45603 38303
L45631 38331
L45687 38359
L45743 38359
L45828 38331
L46165 37993
L46165 38359
" />
<path d="M45575 38724
L45575 38781
L45603 38837
L45631 38865
L45687 38893
L45800 38921
L45940 38921
L46053 38893
L46109 38865
L46137 38837
L46165 38781
L46165 38724
L46137 38668
L46109 38640
L46053 38612
L45940 38584
L45800 38584
L45687 38612
L45631 38640
L45603 38668
L45575 38724
" />
<path d="M46165 39624
L45771 39624
" />
<path d="M45828 39624
L45800 39652
L45771 39709
L45771 39793
L45800 39849
L45856 39877
L46165 39877
" />
<path d="M45856 39877
L45800 39906
L45771 39962
L45771 40046
L45800 40102
L45856 40131
L46165 40131
" />
<path d="M46165 40412
L45771 40412
" />
<path d="M45828 40412
L45800 40440
L45771 40496
L45771 40580
L45800 40637
L45856 40665
L46165 40665
" />
<path d="M45856 40665
L45800 40693
L45771 40749
L45771 40834
L45800 40890
L45856 40918
L46165 40918
" />
<path d="M46430 27000
L46430 50000
" />
<path d="M50180 27000
L45367 27000
" />
<path d="M50180 50000
L45367 50000
" />
<path d="M46430 50000
L46660 49556
" />
<path d="M46430 50000
L46199 49556
" />
<path d="M46430 27000
L46660 27443
" />
<path d="M46430 27000
L46199 27443
" />
<path d="M63817 20395
L64098 20395
L64126 20676
L64098 20648
L64042 20620
L63901 20620
L63845 20648
L63817 20676
L63789 20732
L63789 20873
L63817 20929
L63845 20957
L63901 20985
L64042 20985
L64098 20957
L64126 20929
" />
<path d="M63451 20648
L63507 20620
L63536 20591
L63564 20535
L63564 20507
L63536 20451
L63507 20423
L63451 20395
L63339 20395
L63282 20423
L63254 20451
L63226 20507
L63226 20535
L63254 20591
L63282 20620
L63339 20648
L63451 20648
L63507 20676
L63536 20704
L63564 20760
L63564 20873
L63536 20929
L63507 20957
L63451 20985
L63339 20985
L63282 20957
L63254 20929
L63226 20873
L63226 20760
L63254 20704
L63282 20676
L63339 20648
" />
<path d="M62945 20957
L62945 20985
L62973 21041
L63001 21070
" />
<path d="M62439 20591
L62439 20985
" />
<path d="M62579 20366
L62720 20788
L62354 20788
" />
<path d="M62158 20451
L62129 20423
L62073 20395
L61933 20395
L61876 20423
L61848 20451
L61820 20507
L61820 20563
L61848 20648
L62186 20985
L61820 20985
" />
<path d="M61455 20395
L61398 20395
L61342 20423
L61314 20451
L61286 20507
L61258 20620
L61258 20760
L61286 20873
L61314 20929
L61342 20957
L61398 20985
L61455 20985
L61511 20957
L61539 20929
L61567 20873
L61595 20760
L61595 20620
L61567 20507
L61539 20451
L61511 20423
L61455 20395
" />
<path d="M60555 20985
L60555 20591
" />
<path d="M60555 20648
L60527 20620
L60470 20591
L60386 20591
L60330 20620
L60302 20676
L60302 20985
" />
<path d="M60302 20676
L60273 20620
L60217 20591
L60133 20591
L60077 20620
L60048 20676
L60048 20985
" />
<path d="M59767 20985
L59767 20591
" />
<path d="M59767 20648
L59739 20620
L59683 20591
L59599 20591
L59542 20620
L59514 20676
L59514 20985
" />
<path d="M59514 20676
L59486 20620
L59430 20591
L59345 20591
L59289 20620
L59261 20676
L59261 20985
" />
<path d="M73180 21250
L50180 21250
" />
<path d="M73180 27000
L73180 20187
" />
<path d="M50180 27000
L50180 20187
" />
<path d="M50180 21250
L50623 21480
" />
<path d="M50180 21250
L50623 21019
" />
<path d="M73180 21250
L72736 21480
" />
<path d="M73180 21250
L72736 21019
" />
</g>
<g style="fill:#000000; fill-opacity:0.0; 
stroke:#000000; stroke-width:59.0551; stroke-opacity:1; 
stroke-linecap:round; stroke-linejoin:round;">
<circle cx="73180" cy="27000" r="656.168" /> 
<path d="M74164 27000
L72195 27000
" />
<path d="M73180 26015
L73180 27984
" />
<circle cx="50180" cy="27000" r="656.168" /> 
<path d="M51164 27000
L49195 27000
" />
<path d="M50180 26015
L50180 27984
" />
<circle cx="50180" cy="50000" r="656.168" /> 
<path d="M51164 50000
L49195 50000
" />
<path d="M50180 49015
L50180 50984
" />
</g>
<g style="fill:#000000; fill-opacity:0.0; 
stroke:#000000; stroke-width:118.11; stroke-opacity:1; 
stroke-linecap:round; stroke-linejoin:round;">
<path d="M69676 51664
L69648 51636
L69592 51608
L69451 51608
L69395 51636
L69367 51664
L69339 51720
L69339 51776
L69367 51861
L69704 52198
L69339 52198
" />
<path d="M69142 51608
L68748 51608
L69001 52198
" />
<path d="M68495 52170
L68495 52198
L68523 52254
L68551 52283
" />
<path d="M68214 52198
L68101 52198
L68045 52170
L68017 52142
L67961 52058
L67933 51945
L67933 51720
L67961 51664
L67989 51636
L68045 51608
L68158 51608
L68214 51636
L68242 51664
L68270 51720
L68270 51861
L68242 51917
L68214 51945
L68158 51973
L68045 51973
L67989 51945
L67961 51917
L67933 51861
" />
<path d="M67426 51804
L67426 52198
" />
<path d="M67567 51579
L67708 52001
L67342 52001
" />
<path d="M67005 51608
L66948 51608
L66892 51636
L66864 51664
L66836 51720
L66808 51833
L66808 51973
L66836 52086
L66864 52142
L66892 52170
L66948 52198
L67005 52198
L67061 52170
L67089 52142
L67117 52086
L67145 51973
L67145 51833
L67117 51720
L67089 51664
L67061 51636
L67005 51608
" />
<path d="M66105 52198
L66105 51804
" />
<path d="M66105 51861
L66077 51833
L66020 51804
L65936 51804
L65880 51833
L65852 51889
L65852 52198
" />
<path d="M65852 51889
L65823 51833
L65767 51804
L65683 51804
L65627 51833
L65598 51889
L65598 52198
" />
<path d="M65317 52198
L65317 51804
" />
<path d="M65317 51861
L65289 51833
L65233 51804
L65149 51804
L65092 51833
L65064 51889
L65064 52198
" />
<path d="M65064 51889
L65036 51833
L64980 51804
L64895 51804
L64839 51833
L64811 51889
L64811 52198
" />
<path d="M61730 51400
L72730 51400
" />
<path d="M61730 47200
L61730 52462
" />
<path d="M72730 47200
L72730 52462
" />
<path d="M72730 51400
L72286 51169
" />
<path d="M72730 51400
L72286 51630
" />
<path d="M61730 51400
L62173 51169
" />
<path d="M61730 51400
L62173 51630
" />
<path d="M48253 38813
L48253 38926
L48225 38982
L48197 39010
L48112 39066
L48000 39094
L47775 39094
L47719 39066
L47690 39038
L47662 38982
L47662 38869
L47690 38813
L47719 38785
L47775 38757
L47915 38757
L47972 38785
L48000 38813
L48028 38869
L48028 38982
L48000 39038
L47972 39066
L47915 39094
" />
<path d="M47690 38476
L47662 38476
L47606 38504
L47578 38532
" />
<path d="M48253 38279
L48253 37913
L48028 38110
L48028 38026
L48000 37969
L47972 37941
L47915 37913
L47775 37913
L47719 37941
L47690 37969
L47662 38026
L47662 38194
L47690 38251
L47719 38279
" />
<path d="M48253 37379
L48253 37660
L47972 37688
L48000 37660
L48028 37604
L48028 37463
L48000 37407
L47972 37379
L47915 37351
L47775 37351
L47719 37379
L47690 37407
L47662 37463
L47662 37604
L47690 37660
L47719 37688
" />
<path d="M48253 36985
L48253 36929
L48225 36873
L48197 36845
L48140 36816
L48028 36788
L47887 36788
L47775 36816
L47719 36845
L47690 36873
L47662 36929
L47662 36985
L47690 37041
L47719 37070
L47775 37098
L47887 37126
L48028 37126
L48140 37098
L48197 37070
L48225 37041
L48253 36985
" />
<path d="M47662 36142
L48056 35832
" />
<path d="M48056 36142
L47662 35832
" />
<path d="M48253 34454
L48253 34567
L48225 34623
L48197 34651
L48112 34707
L48000 34735
L47775 34735
L47719 34707
L47690 34679
L47662 34623
L47662 34510
L47690 34454
L47719 34426
L47775 34398
L47915 34398
L47972 34426
L48000 34454
L48028 34510
L48028 34623
L48000 34679
L47972 34707
L47915 34735
" />
<path d="M47719 34145
L47690 34117
L47662 34145
L47690 34173
L47719 34145
L47662 34145
" />
<path d="M48253 33920
L48253 33554
L48028 33751
L48028 33667
L48000 33611
L47972 33582
L47915 33554
L47775 33554
L47719 33582
L47690 33611
L47662 33667
L47662 33836
L47690 33892
L47719 33920
" />
<path d="M48253 33020
L48253 33301
L47972 33329
L48000 33301
L48028 33245
L48028 33104
L48000 33048
L47972 33020
L47915 32992
L47775 32992
L47719 33020
L47690 33048
L47662 33104
L47662 33245
L47690 33301
L47719 33329
" />
<path d="M48253 32626
L48253 32570
L48225 32514
L48197 32486
L48140 32458
L48028 32429
L47887 32429
L47775 32458
L47719 32486
L47690 32514
L47662 32570
L47662 32626
L47690 32683
L47719 32711
L47775 32739
L47887 32767
L48028 32767
L48140 32739
L48197 32711
L48225 32683
L48253 32626
" />
<path d="M47662 31726
L48056 31726
" />
<path d="M48000 31726
L48028 31698
L48056 31642
L48056 31558
L48028 31501
L47972 31473
L47662 31473
" />
<path d="M47972 31473
L48028 31445
L48056 31389
L48056 31305
L48028 31248
L47972 31220
L47662 31220
" />
<path d="M47662 30939
L48056 30939
" />
<path d="M48000 30939
L48028 30911
L48056 30855
L48056 30770
L48028 30714
L47972 30686
L47662 30686
" />
<path d="M47972 30686
L48028 30658
L48056 30602
L48056 30517
L48028 30461
L47972 30433
L47662 30433
" />
<path d="M48430 30000
L48430 27500
" />
<path d="M53180 30000
L47367 30000
" />
<path d="M53180 27500
L47367 27500
" />
<path d="M48430 27500
L48199 27943
" />
<path d="M48430 27500
L48660 27943
" />
<path d="M48430 30000
L48199 29556
" />
<path d="M48430 30000
L48660 29556
" />
<path d="M63817 23145
L64098 23145
L64126 23426
L64098 23398
L64042 23370
L63901 23370
L63845 23398
L63817 23426
L63789 23482
L63789 23623
L63817 23679
L63845 23707
L63901 23735
L64042 23735
L64098 23707
L64126 23679
" />
<path d="M63254 23145
L63536 23145
L63564 23426
L63536 23398
L63479 23370
L63339 23370
L63282 23398
L63254 23426
L63226 23482
L63226 23623
L63254 23679
L63282 23707
L63339 23735
L63479 23735
L63536 23707
L63564 23679
" />
<path d="M62945 23707
L62945 23735
L62973 23791
L63001 23820
" />
<path d="M62608 23398
L62664 23370
L62692 23341
L62720 23285
L62720 23257
L62692 23201
L62664 23173
L62608 23145
L62495 23145
L62439 23173
L62411 23201
L62383 23257
L62383 23285
L62411 23341
L62439 23370
L62495 23398
L62608 23398
L62664 23426
L62692 23454
L62720 23510
L62720 23623
L62692 23679
L62664 23707
L62608 23735
L62495 23735
L62439 23707
L62411 23679
L62383 23623
L62383 23510
L62411 23454
L62439 23426
L62495 23398
" />
<path d="M62045 23398
L62101 23370
L62129 23341
L62158 23285
L62158 23257
L62129 23201
L62101 23173
L62045 23145
L61933 23145
L61876 23173
L61848 23201
L61820 23257
L61820 23285
L61848 23341
L61876 23370
L61933 23398
L62045 23398
L62101 23426
L62129 23454
L62158 23510
L62158 23623
L62129 23679
L62101 23707
L62045 23735
L61933 23735
L61876 23707
L61848 23679
L61820 23623
L61820 23510
L61848 23454
L61876 23426
L61933 23398
" />
<path d="M61455 23145
L61398 23145
L61342 23173
L61314 23201
L61286 23257
L61258 23370
L61258 23510
L61286 23623
L61314 23679
L61342 23707
L61398 23735
L61455 23735
L61511 23707
L61539 23679
L61567 23623
L61595 23510
L61595 23370
L61567 23257
L61539 23201
L61511 23173
L61455 23145
" />
<path d="M60555 23735
L60555 23341
" />
<path d="M60555 23398
L60527 23370
L60470 23341
L60386 23341
L60330 23370
L60302 23426
L60302 23735
" />
<path d="M60302 23426
L60273 23370
L60217 23341
L60133 23341
L60077 23370
L60048 23426
L60048 23735
" />
<path d="M59767 23735
L59767 23341
" />
<path d="M59767 23398
L59739 23370
L59683 23341
L59599 23341
L59542 23370
L59514 23426
L59514 23735
" />
<path d="M59514 23426
L59486 23370
L59430 23341
L59345 23341
L59289 23370
L59261 23426
L59261 23735
" />
<path d="M72680 24000
L50680 24000
" />
<path d="M72680 27500
L72680 22937
" />
<path d="M50680 27500
L50680 22937
" />
<path d="M50680 24000
L51123 24230
" />
<path d="M50680 24000
L51123 23769
" />
<path d="M72680 24000
L72236 24230
" />
<path d="M72680 24000
L72236 23769
" />
<path d="M76388 36362
L76388 36081
L76669 36053
L76641 36081
L76613 36137
L76613 36278
L76641 36334
L76669 36362
L76725 36390
L76866 36390
L76922 36362
L76950 36334
L76978 36278
L76978 36137
L76950 36081
L76922 36053
" />
<path d="M76388 36925
L76388 36643
L76669 36615
L76641 36643
L76613 36700
L76613 36840
L76641 36897
L76669 36925
L76725 36953
L76866 36953
L76922 36925
L76950 36897
L76978 36840
L76978 36700
L76950 36643
L76922 36615
" />
<path d="M76950 37234
L76978 37234
L77034 37206
L77063 37178
" />
<path d="M76641 37571
L76613 37515
L76584 37487
L76528 37459
L76500 37459
L76444 37487
L76416 37515
L76388 37571
L76388 37684
L76416 37740
L76444 37768
L76500 37796
L76528 37796
L76584 37768
L76613 37740
L76641 37684
L76641 37571
L76669 37515
L76697 37487
L76753 37459
L76866 37459
L76922 37487
L76950 37515
L76978 37571
L76978 37684
L76950 37740
L76922 37768
L76866 37796
L76753 37796
L76697 37768
L76669 37740
L76641 37684
" />
<path d="M76641 38134
L76613 38078
L76584 38050
L76528 38021
L76500 38021
L76444 38050
L76416 38078
L76388 38134
L76388 38246
L76416 38303
L76444 38331
L76500 38359
L76528 38359
L76584 38331
L76613 38303
L76641 38246
L76641 38134
L76669 38078
L76697 38050
L76753 38021
L76866 38021
L76922 38050
L76950 38078
L76978 38134
L76978 38246
L76950 38303
L76922 38331
L76866 38359
L76753 38359
L76697 38331
L76669 38303
L76641 38246
" />
<path d="M76388 38724
L76388 38781
L76416 38837
L76444 38865
L76500 38893
L76613 38921
L76753 38921
L76866 38893
L76922 38865
L76950 38837
L76978 38781
L76978 38724
L76950 38668
L76922 38640
L76866 38612
L76753 38584
L76613 38584
L76500 38612
L76444 38640
L76416 38668
L76388 38724
" />
<path d="M76978 39624
L76584 39624
" />
<path d="M76641 39624
L76613 39652
L76584 39709
L76584 39793
L76613 39849
L76669 39877
L76978 39877
" />
<path d="M76669 39877
L76613 39906
L76584 39962
L76584 40046
L76613 40102
L76669 40131
L76978 40131
" />
<path d="M76978 40412
L76584 40412
" />
<path d="M76641 40412
L76613 40440
L76584 40496
L76584 40580
L76613 40637
L76669 40665
L76978 40665
" />
<path d="M76669 40665
L76613 40693
L76584 40749
L76584 40834
L76613 40890
L76669 40918
L76978 40918
" />
<path d="M76180 27500
L76180 49500
" />
<path d="M72680 27500
L77242 27500
" />
<path d="M72680 49500
L77242 49500
" />
<path d="M76180 49500
L76410 49056
" />
<path d="M76180 49500
L75949 49056
" />
<path d="M76180 27500
L76410 27943
" />
<path d="M76180 27500
L75949 27943
" />
</g>
<g style="fill:#000000; fill-opacity:0.0; 
stroke:#000000; stroke-width:59.0551; stroke-opacity:1; 
stroke-linecap:round; stroke-linejoin:round;">
<path d="M50680 49500
L50680 27500
" />
<path d="M72680 49500
L50680 49500
" />
<path d="M72680 27500
L72680 49500
" />
<path d="M72680 27500
L50681 27500
" />
</g> 
</svg>
