<?xml version="1.0" standalone="no"?>
 <!DOCTYPE svg PUBLIC "-//W3C//DTD SVG 1.1//EN" 
 "http://www.w3.org/Graphics/SVG/1.1/DTD/svg11.dtd"> 
<svg xmlns="http://www.w3.org/2000/svg" version="1.1" 
    width="29.7002cm" height="21.0007cm" viewBox="0 0 116930 82680 ">
<title>SVG Picture created as TAP-F.SilkS.svg date 2017/04/20 14:54:16 </title>
  <desc>Picture generated by PCBNEW </desc>
<g style="fill:#000000; fill-opacity:1;stroke:#000000; stroke-opacity:1;
stroke-linecap:round; stroke-linejoin:round; "
 transform="translate(0 0) scale(1 1)">
</g>
<g style="fill:#000000; fill-opacity:0.0; 
stroke:#000000; stroke-width:-0.000393701; stroke-opacity:1; 
stroke-linecap:round; stroke-linejoin:round;">
</g>
<g style="fill:#000000; fill-opacity:0.0; 
stroke:#000000; stroke-width:59.0551; stroke-opacity:1; 
stroke-linecap:round; stroke-linejoin:round;">
<circle cx="73180" cy="50000" r="656.168" /> 
<path d="M74164 50000
L72195 50000
" />
<path d="M73180 49015
L73180 50984
" />
<circle cx="73180" cy="27000" r="656.168" /> 
<path d="M74164 27000
L72195 27000
" />
<path d="M73180 26015
L73180 27984
" />
<circle cx="50180" cy="27000" r="656.168" /> 
<path d="M51164 27000
L49195 27000
" />
<path d="M50180 26015
L50180 27984
" />
<circle cx="50180" cy="50000" r="656.168" /> 
<path d="M51164 50000
L49195 50000
" />
<path d="M50180 49015
L50180 50984
" />
<path d="M50680 49500
L50680 27500
" />
<path d="M72680 49500
L50680 49500
" />
<path d="M72680 27500
L72680 49500
" />
<path d="M72680 27500
L50681 27500
" />
<path d="M71884 41354
L71880 49787
" />
<path d="M65888 41354
L65876 49783
" />
<path d="M71884 49787
L65880 49787
" />
<path d="M71884 41362
L65880 41362
" />
<path d="M58725 35645
L58729 27212
" />
<path d="M64721 35645
L64733 27216
" />
<path d="M58725 27212
L64729 27212
" />
<path d="M58725 35637
L64729 35637
" />
<path d="M57384 41354
L57380 49787
" />
<path d="M51388 41354
L51376 49783
" />
<path d="M57384 49787
L51380 49787
" />
<path d="M57384 41362
L51380 41362
" />
</g>
<g style="fill:#000000; fill-opacity:0.0; 
stroke:#000000; stroke-width:39.3701; stroke-opacity:1; 
stroke-linecap:round; stroke-linejoin:round;">
<circle cx="71180" cy="45500" r="620.079" /> 
<circle cx="66680" cy="45500" r="620.079" /> 
<circle cx="69180" cy="42000" r="275.591" /> 
<circle cx="70180" cy="42000" r="275.591" /> 
<circle cx="68180" cy="42000" r="275.591" /> 
<circle cx="67180" cy="42000" r="275.591" /> 
<polyline fill="none;"
points="70955,43275
70955,42724
70404,42724
70404,43275
70955,43275
" /> 
<circle cx="69680" cy="43000" r="275.591" /> 
<circle cx="68680" cy="43000" r="275.591" /> 
<circle cx="67680" cy="43000" r="275.591" /> 
<circle cx="71884.7" cy="44200.8" r="480.315" /> 
<circle cx="65880.8" cy="44200.8" r="480.315" /> 
<circle cx="59430" cy="31500" r="620.079" /> 
<circle cx="63930" cy="31500" r="620.079" /> 
<circle cx="61430" cy="35000" r="275.591" /> 
<circle cx="60430" cy="35000" r="275.591" /> 
<circle cx="62430" cy="35000" r="275.591" /> 
<circle cx="63430" cy="35000" r="275.591" /> 
<polyline fill="none;"
points="59654,33724
59654,34275
60205,34275
60205,33724
59654,33724
" /> 
<circle cx="60930" cy="34000" r="275.591" /> 
<circle cx="61930" cy="34000" r="275.591" /> 
<circle cx="62930" cy="34000" r="275.591" /> 
<circle cx="58725.3" cy="32799.2" r="480.315" /> 
<circle cx="64729.2" cy="32799.2" r="480.315" /> 
<circle cx="56680" cy="45500" r="620.079" /> 
<circle cx="52180" cy="45500" r="620.079" /> 
<circle cx="54680" cy="42000" r="275.591" /> 
<circle cx="55680" cy="42000" r="275.591" /> 
<circle cx="53680" cy="42000" r="275.591" /> 
<circle cx="52680" cy="42000" r="275.591" /> 
<polyline fill="none;"
points="56455,43275
56455,42724
55904,42724
55904,43275
56455,43275
" /> 
<circle cx="55180" cy="43000" r="275.591" /> 
<circle cx="54180" cy="43000" r="275.591" /> 
<circle cx="53180" cy="43000" r="275.591" /> 
<circle cx="57384.7" cy="44200.8" r="480.315" /> 
<circle cx="51380.8" cy="44200.8" r="480.315" /> 
</g>
<g style="fill:#000000; fill-opacity:0.0; 
stroke:#000000; stroke-width:59.0551; stroke-opacity:1; 
stroke-linecap:round; stroke-linejoin:round;">
<path d="M69000 50544
L69000 50825
L69018 50881
L69056 50919
L69112 50937
L69150 50937
" />
<path d="M68606 50937
L68831 50937
" />
<path d="M68718 50937
L68718 50544
L68756 50600
L68793 50637
L68831 50656
" />
<path d="M61872 26024
L61872 26305
L61891 26362
L61928 26399
L61984 26418
L62022 26418
" />
<path d="M61703 26062
L61684 26043
L61647 26024
L61553 26024
L61516 26043
L61497 26062
L61478 26099
L61478 26137
L61497 26193
L61722 26418
L61478 26418
" />
<path d="M54500 50544
L54500 50825
L54518 50881
L54556 50919
L54612 50937
L54650 50937
" />
<path d="M54350 50544
L54106 50544
L54237 50694
L54181 50694
L54144 50712
L54125 50731
L54106 50769
L54106 50862
L54125 50900
L54144 50919
L54181 50937
L54293 50937
L54331 50919
L54350 50900
" />
<path d="M53704 28406
L53836 28218
" />
<path d="M53929 28406
L53929 28012
L53779 28012
L53742 28031
L53723 28050
L53704 28087
L53704 28143
L53723 28181
L53742 28200
L53779 28218
L53929 28218
" />
<path d="M53536 28200
L53404 28200
" />
<path d="M53348 28406
L53536 28406
L53536 28012
L53348 28012
" />
<path d="M53048 28200
L53180 28200
" />
<path d="M53180 28406
L53180 28012
L52992 28012
" />
<path d="M52786 28012
L52786 28106
" />
<path d="M52880 28068
L52786 28106
L52692 28068
" />
<path d="M52842 28181
L52786 28106
L52730 28181
" />
<path d="M52486 28012
L52486 28106
" />
<path d="M52580 28068
L52486 28106
L52392 28068
" />
<path d="M52542 28181
L52486 28106
L52430 28181
" />
<path d="M70704 28406
L70836 28218
" />
<path d="M70929 28406
L70929 28012
L70779 28012
L70742 28031
L70723 28050
L70704 28087
L70704 28143
L70723 28181
L70742 28200
L70779 28218
L70929 28218
" />
<path d="M70536 28200
L70404 28200
" />
<path d="M70348 28406
L70536 28406
L70536 28012
L70348 28012
" />
<path d="M70048 28200
L70180 28200
" />
<path d="M70180 28406
L70180 28012
L69992 28012
" />
<path d="M69786 28012
L69786 28106
" />
<path d="M69880 28068
L69786 28106
L69692 28068
" />
<path d="M69842 28181
L69786 28106
L69730 28181
" />
<path d="M69486 28012
L69486 28106
" />
<path d="M69580 28068
L69486 28106
L69392 28068
" />
<path d="M69542 28181
L69486 28106
L69430 28181
" />
<path d="M62254 45606
L62386 45418
" />
<path d="M62479 45606
L62479 45212
L62329 45212
L62292 45231
L62273 45250
L62254 45287
L62254 45343
L62273 45381
L62292 45400
L62329 45418
L62479 45418
" />
<path d="M62086 45400
L61954 45400
" />
<path d="M61898 45606
L62086 45606
L62086 45212
L61898 45212
" />
<path d="M61598 45400
L61730 45400
" />
<path d="M61730 45606
L61730 45212
L61542 45212
" />
<path d="M61336 45212
L61336 45306
" />
<path d="M61430 45268
L61336 45306
L61242 45268
" />
<path d="M61392 45381
L61336 45306
L61280 45381
" />
<path d="M61036 45212
L61036 45306
" />
<path d="M61130 45268
L61036 45306
L60942 45268
" />
<path d="M61092 45381
L61036 45306
L60980 45381
" />
</g> 
</svg>
