M48
;DRILL file {KiCad 4.0.2-stable} date 20/04/2017 16:01:05
;FORMAT={-:-/ absolute / metric / decimal}
FMAT,2
METRIC,TZ
T1C0.900
T2C1.570
T3C3.000
T4C3.500
%
G90
G05
M71
T1
X6.35Y-40.64
X7.62Y-38.1
X8.89Y-40.64
X9.525Y-27.94
X10.16Y-38.1
X11.43Y-40.64
X12.7Y-38.1
X13.97Y-40.64
X15.24Y-38.1
X20.955Y-24.13
X22.225Y-30.48
X22.225Y-33.02
X22.225Y-35.56
X24.765Y-20.32
X24.765Y-24.13
X26.035Y-17.78
X26.035Y-27.94
X27.305Y-20.32
X27.305Y-25.4
X27.305Y-35.56
X28.575Y-17.78
X29.845Y-20.32
X29.845Y-27.94
X29.845Y-33.02
X31.115Y-17.78
X31.115Y-40.64
X32.385Y-20.32
X32.385Y-30.48
X33.655Y-17.78
X34.925Y-25.4
X34.925Y-27.94
X34.925Y-40.64
X43.18Y-40.64
X44.45Y-38.1
X45.72Y-40.64
X46.99Y-38.1
X48.26Y-40.64
X49.53Y-38.1
X50.8Y-40.64
X52.07Y-38.1
T2
X3.29Y-43.69
X18.54Y-43.69
X21.465Y-14.73
X36.715Y-14.73
X40.12Y-43.69
X55.37Y-43.69
T3
X5.08Y-46.99
X16.51Y-46.99
X23.495Y-11.43
X34.925Y-11.43
X41.91Y-46.99
X53.34Y-46.99
T4
X7.62Y-7.62
X29.083Y-51.308
X50.8Y-7.62
T0
M30
