<?xml version="1.0" standalone="no"?>
 <!DOCTYPE svg PUBLIC "-//W3C//DTD SVG 1.1//EN" 
 "http://www.w3.org/Graphics/SVG/1.1/DTD/svg11.dtd"> 
<svg xmlns="http://www.w3.org/2000/svg" version="1.1" 
    width="29.7002cm" height="21.0007cm" viewBox="0 0 116930 82680 ">
<title>SVG Picture created as TAP-Dwgs.User.svg date 2017/04/20 14:52:06 </title>
  <desc>Picture generated by PCBNEW </desc>
<g style="fill:#000000; fill-opacity:1;stroke:#000000; stroke-opacity:1;
stroke-linecap:round; stroke-linejoin:round; "
 transform="translate(0 0) scale(1 1)">
</g>
<g style="fill:#000000; fill-opacity:0.0; 
stroke:#000000; stroke-width:-0.000393701; stroke-opacity:1; 
stroke-linecap:round; stroke-linejoin:round;">
</g>
<g style="fill:#000000; fill-opacity:0.0; 
stroke:#000000; stroke-width:59.0551; stroke-opacity:1; 
stroke-linecap:round; stroke-linejoin:round;">
<circle cx="43750" cy="50000" r="656.168" /> 
<path d="M42765 50000
L44734 50000
" />
<path d="M43750 49015
L43750 50984
" />
</g>
<g style="fill:#000000; fill-opacity:0.0; 
stroke:#000000; stroke-width:118.11; stroke-opacity:1; 
stroke-linecap:round; stroke-linejoin:round;">
<path d="M71354 36362
L71354 36081
L71073 36053
L71101 36081
L71129 36137
L71129 36278
L71101 36334
L71073 36362
L71017 36390
L70876 36390
L70820 36362
L70792 36334
L70764 36278
L70764 36137
L70792 36081
L70820 36053
" />
<path d="M71101 36728
L71129 36672
L71158 36643
L71214 36615
L71242 36615
L71298 36643
L71326 36672
L71354 36728
L71354 36840
L71326 36897
L71298 36925
L71242 36953
L71214 36953
L71158 36925
L71129 36897
L71101 36840
L71101 36728
L71073 36672
L71045 36643
L70989 36615
L70876 36615
L70820 36643
L70792 36672
L70764 36728
L70764 36840
L70792 36897
L70820 36925
L70876 36953
L70989 36953
L71045 36925
L71073 36897
L71101 36840
" />
<path d="M70792 37234
L70764 37234
L70708 37206
L70679 37178
" />
<path d="M71158 37740
L70764 37740
" />
<path d="M71383 37600
L70961 37459
L70961 37825
" />
<path d="M71298 38021
L71326 38050
L71354 38106
L71354 38246
L71326 38303
L71298 38331
L71242 38359
L71186 38359
L71101 38331
L70764 37993
L70764 38359
" />
<path d="M71354 38724
L71354 38781
L71326 38837
L71298 38865
L71242 38893
L71129 38921
L70989 38921
L70876 38893
L70820 38865
L70792 38837
L70764 38781
L70764 38724
L70792 38668
L70820 38640
L70876 38612
L70989 38584
L71129 38584
L71242 38612
L71298 38640
L71326 38668
L71354 38724
" />
<path d="M70764 39624
L71158 39624
" />
<path d="M71101 39624
L71129 39652
L71158 39709
L71158 39793
L71129 39849
L71073 39877
L70764 39877
" />
<path d="M71073 39877
L71129 39906
L71158 39962
L71158 40046
L71129 40102
L71073 40131
L70764 40131
" />
<path d="M70764 40412
L71158 40412
" />
<path d="M71101 40412
L71129 40440
L71158 40496
L71158 40580
L71129 40637
L71073 40665
L70764 40665
" />
<path d="M71073 40665
L71129 40693
L71158 40749
L71158 40834
L71129 40890
L71073 40918
L70764 40918
" />
<path d="M70500 27000
L70500 50000
" />
<path d="M66750 27000
L71562 27000
" />
<path d="M66750 50000
L71562 50000
" />
<path d="M70500 50000
L70269 49556
" />
<path d="M70500 50000
L70730 49556
" />
<path d="M70500 27000
L70269 27443
" />
<path d="M70500 27000
L70730 27443
" />
<path d="M53112 20395
L52831 20395
L52803 20676
L52831 20648
L52887 20620
L53028 20620
L53084 20648
L53112 20676
L53140 20732
L53140 20873
L53112 20929
L53084 20957
L53028 20985
L52887 20985
L52831 20957
L52803 20929
" />
<path d="M53478 20648
L53422 20620
L53393 20591
L53365 20535
L53365 20507
L53393 20451
L53422 20423
L53478 20395
L53590 20395
L53647 20423
L53675 20451
L53703 20507
L53703 20535
L53675 20591
L53647 20620
L53590 20648
L53478 20648
L53422 20676
L53393 20704
L53365 20760
L53365 20873
L53393 20929
L53422 20957
L53478 20985
L53590 20985
L53647 20957
L53675 20929
L53703 20873
L53703 20760
L53675 20704
L53647 20676
L53590 20648
" />
<path d="M53984 20957
L53984 20985
L53956 21041
L53928 21070
" />
<path d="M54490 20591
L54490 20985
" />
<path d="M54350 20366
L54209 20788
L54575 20788
" />
<path d="M54771 20451
L54800 20423
L54856 20395
L54996 20395
L55053 20423
L55081 20451
L55109 20507
L55109 20563
L55081 20648
L54743 20985
L55109 20985
" />
<path d="M55474 20395
L55531 20395
L55587 20423
L55615 20451
L55643 20507
L55671 20620
L55671 20760
L55643 20873
L55615 20929
L55587 20957
L55531 20985
L55474 20985
L55418 20957
L55390 20929
L55362 20873
L55334 20760
L55334 20620
L55362 20507
L55390 20451
L55418 20423
L55474 20395
" />
<path d="M56374 20985
L56374 20591
" />
<path d="M56374 20648
L56402 20620
L56459 20591
L56543 20591
L56599 20620
L56627 20676
L56627 20985
" />
<path d="M56627 20676
L56656 20620
L56712 20591
L56796 20591
L56852 20620
L56881 20676
L56881 20985
" />
<path d="M57162 20985
L57162 20591
" />
<path d="M57162 20648
L57190 20620
L57246 20591
L57330 20591
L57387 20620
L57415 20676
L57415 20985
" />
<path d="M57415 20676
L57443 20620
L57499 20591
L57584 20591
L57640 20620
L57668 20676
L57668 20985
" />
<path d="M43750 21250
L66750 21250
" />
<path d="M43750 27000
L43750 20187
" />
<path d="M66750 27000
L66750 20187
" />
<path d="M66750 21250
L66306 21480
" />
<path d="M66750 21250
L66306 21019
" />
<path d="M43750 21250
L44193 21480
" />
<path d="M43750 21250
L44193 21019
" />
</g>
<g style="fill:#000000; fill-opacity:0.0; 
stroke:#000000; stroke-width:59.0551; stroke-opacity:1; 
stroke-linecap:round; stroke-linejoin:round;">
<circle cx="43750" cy="27000" r="656.168" /> 
<path d="M42765 27000
L44734 27000
" />
<path d="M43750 26015
L43750 27984
" />
<circle cx="66750" cy="27000" r="656.168" /> 
<path d="M65765 27000
L67734 27000
" />
<path d="M66750 26015
L66750 27984
" />
<circle cx="66750" cy="50000" r="656.168" /> 
<path d="M65765 50000
L67734 50000
" />
<path d="M66750 49015
L66750 50984
" />
</g>
<g style="fill:#000000; fill-opacity:0.0; 
stroke:#000000; stroke-width:118.11; stroke-opacity:1; 
stroke-linecap:round; stroke-linejoin:round;">
<path d="M47253 51664
L47281 51636
L47337 51608
L47478 51608
L47534 51636
L47562 51664
L47590 51720
L47590 51776
L47562 51861
L47225 52198
L47590 52198
" />
<path d="M47787 51608
L48181 51608
L47928 52198
" />
<path d="M48434 52170
L48434 52198
L48406 52254
L48378 52283
" />
<path d="M48715 52198
L48828 52198
L48884 52170
L48912 52142
L48968 52058
L48996 51945
L48996 51720
L48968 51664
L48940 51636
L48884 51608
L48771 51608
L48715 51636
L48687 51664
L48659 51720
L48659 51861
L48687 51917
L48715 51945
L48771 51973
L48884 51973
L48940 51945
L48968 51917
L48996 51861
" />
<path d="M49503 51804
L49503 52198
" />
<path d="M49362 51579
L49221 52001
L49587 52001
" />
<path d="M49924 51608
L49981 51608
L50037 51636
L50065 51664
L50093 51720
L50121 51833
L50121 51973
L50093 52086
L50065 52142
L50037 52170
L49981 52198
L49924 52198
L49868 52170
L49840 52142
L49812 52086
L49784 51973
L49784 51833
L49812 51720
L49840 51664
L49868 51636
L49924 51608
" />
<path d="M50824 52198
L50824 51804
" />
<path d="M50824 51861
L50852 51833
L50909 51804
L50993 51804
L51049 51833
L51077 51889
L51077 52198
" />
<path d="M51077 51889
L51106 51833
L51162 51804
L51246 51804
L51302 51833
L51331 51889
L51331 52198
" />
<path d="M51612 52198
L51612 51804
" />
<path d="M51612 51861
L51640 51833
L51696 51804
L51780 51804
L51837 51833
L51865 51889
L51865 52198
" />
<path d="M51865 51889
L51893 51833
L51949 51804
L52034 51804
L52090 51833
L52118 51889
L52118 52198
" />
<path d="M55200 51400
L44200 51400
" />
<path d="M55200 47200
L55200 52462
" />
<path d="M44200 47200
L44200 52462
" />
<path d="M44200 51400
L44643 51169
" />
<path d="M44200 51400
L44643 51630
" />
<path d="M55200 51400
L54756 51169
" />
<path d="M55200 51400
L54756 51630
" />
<path d="M68676 38813
L68676 38926
L68704 38982
L68732 39010
L68817 39066
L68929 39094
L69154 39094
L69210 39066
L69239 39038
L69267 38982
L69267 38869
L69239 38813
L69210 38785
L69154 38757
L69014 38757
L68957 38785
L68929 38813
L68901 38869
L68901 38982
L68929 39038
L68957 39066
L69014 39094
" />
<path d="M69239 38476
L69267 38476
L69323 38504
L69351 38532
" />
<path d="M68676 38279
L68676 37913
L68901 38110
L68901 38026
L68929 37969
L68957 37941
L69014 37913
L69154 37913
L69210 37941
L69239 37969
L69267 38026
L69267 38194
L69239 38251
L69210 38279
" />
<path d="M68676 37379
L68676 37660
L68957 37688
L68929 37660
L68901 37604
L68901 37463
L68929 37407
L68957 37379
L69014 37351
L69154 37351
L69210 37379
L69239 37407
L69267 37463
L69267 37604
L69239 37660
L69210 37688
" />
<path d="M68676 36985
L68676 36929
L68704 36873
L68732 36845
L68789 36816
L68901 36788
L69042 36788
L69154 36816
L69210 36845
L69239 36873
L69267 36929
L69267 36985
L69239 37041
L69210 37070
L69154 37098
L69042 37126
L68901 37126
L68789 37098
L68732 37070
L68704 37041
L68676 36985
" />
<path d="M69267 36142
L68873 35832
" />
<path d="M68873 36142
L69267 35832
" />
<path d="M68676 34454
L68676 34567
L68704 34623
L68732 34651
L68817 34707
L68929 34735
L69154 34735
L69210 34707
L69239 34679
L69267 34623
L69267 34510
L69239 34454
L69210 34426
L69154 34398
L69014 34398
L68957 34426
L68929 34454
L68901 34510
L68901 34623
L68929 34679
L68957 34707
L69014 34735
" />
<path d="M69210 34145
L69239 34117
L69267 34145
L69239 34173
L69210 34145
L69267 34145
" />
<path d="M68676 33920
L68676 33554
L68901 33751
L68901 33667
L68929 33611
L68957 33582
L69014 33554
L69154 33554
L69210 33582
L69239 33611
L69267 33667
L69267 33836
L69239 33892
L69210 33920
" />
<path d="M68676 33020
L68676 33301
L68957 33329
L68929 33301
L68901 33245
L68901 33104
L68929 33048
L68957 33020
L69014 32992
L69154 32992
L69210 33020
L69239 33048
L69267 33104
L69267 33245
L69239 33301
L69210 33329
" />
<path d="M68676 32626
L68676 32570
L68704 32514
L68732 32486
L68789 32458
L68901 32429
L69042 32429
L69154 32458
L69210 32486
L69239 32514
L69267 32570
L69267 32626
L69239 32683
L69210 32711
L69154 32739
L69042 32767
L68901 32767
L68789 32739
L68732 32711
L68704 32683
L68676 32626
" />
<path d="M69267 31726
L68873 31726
" />
<path d="M68929 31726
L68901 31698
L68873 31642
L68873 31558
L68901 31501
L68957 31473
L69267 31473
" />
<path d="M68957 31473
L68901 31445
L68873 31389
L68873 31305
L68901 31248
L68957 31220
L69267 31220
" />
<path d="M69267 30939
L68873 30939
" />
<path d="M68929 30939
L68901 30911
L68873 30855
L68873 30770
L68901 30714
L68957 30686
L69267 30686
" />
<path d="M68957 30686
L68901 30658
L68873 30602
L68873 30517
L68901 30461
L68957 30433
L69267 30433
" />
<path d="M68500 30000
L68500 27500
" />
<path d="M63750 30000
L69562 30000
" />
<path d="M63750 27500
L69562 27500
" />
<path d="M68500 27500
L68730 27943
" />
<path d="M68500 27500
L68269 27943
" />
<path d="M68500 30000
L68730 29556
" />
<path d="M68500 30000
L68269 29556
" />
<path d="M53112 23145
L52831 23145
L52803 23426
L52831 23398
L52887 23370
L53028 23370
L53084 23398
L53112 23426
L53140 23482
L53140 23623
L53112 23679
L53084 23707
L53028 23735
L52887 23735
L52831 23707
L52803 23679
" />
<path d="M53675 23145
L53393 23145
L53365 23426
L53393 23398
L53450 23370
L53590 23370
L53647 23398
L53675 23426
L53703 23482
L53703 23623
L53675 23679
L53647 23707
L53590 23735
L53450 23735
L53393 23707
L53365 23679
" />
<path d="M53984 23707
L53984 23735
L53956 23791
L53928 23820
" />
<path d="M54321 23398
L54265 23370
L54237 23341
L54209 23285
L54209 23257
L54237 23201
L54265 23173
L54321 23145
L54434 23145
L54490 23173
L54518 23201
L54546 23257
L54546 23285
L54518 23341
L54490 23370
L54434 23398
L54321 23398
L54265 23426
L54237 23454
L54209 23510
L54209 23623
L54237 23679
L54265 23707
L54321 23735
L54434 23735
L54490 23707
L54518 23679
L54546 23623
L54546 23510
L54518 23454
L54490 23426
L54434 23398
" />
<path d="M54884 23398
L54828 23370
L54800 23341
L54771 23285
L54771 23257
L54800 23201
L54828 23173
L54884 23145
L54996 23145
L55053 23173
L55081 23201
L55109 23257
L55109 23285
L55081 23341
L55053 23370
L54996 23398
L54884 23398
L54828 23426
L54800 23454
L54771 23510
L54771 23623
L54800 23679
L54828 23707
L54884 23735
L54996 23735
L55053 23707
L55081 23679
L55109 23623
L55109 23510
L55081 23454
L55053 23426
L54996 23398
" />
<path d="M55474 23145
L55531 23145
L55587 23173
L55615 23201
L55643 23257
L55671 23370
L55671 23510
L55643 23623
L55615 23679
L55587 23707
L55531 23735
L55474 23735
L55418 23707
L55390 23679
L55362 23623
L55334 23510
L55334 23370
L55362 23257
L55390 23201
L55418 23173
L55474 23145
" />
<path d="M56374 23735
L56374 23341
" />
<path d="M56374 23398
L56402 23370
L56459 23341
L56543 23341
L56599 23370
L56627 23426
L56627 23735
" />
<path d="M56627 23426
L56656 23370
L56712 23341
L56796 23341
L56852 23370
L56881 23426
L56881 23735
" />
<path d="M57162 23735
L57162 23341
" />
<path d="M57162 23398
L57190 23370
L57246 23341
L57330 23341
L57387 23370
L57415 23426
L57415 23735
" />
<path d="M57415 23426
L57443 23370
L57499 23341
L57584 23341
L57640 23370
L57668 23426
L57668 23735
" />
<path d="M44250 24000
L66250 24000
" />
<path d="M44250 27500
L44250 22937
" />
<path d="M66250 27500
L66250 22937
" />
<path d="M66250 24000
L65806 24230
" />
<path d="M66250 24000
L65806 23769
" />
<path d="M44250 24000
L44693 24230
" />
<path d="M44250 24000
L44693 23769
" />
<path d="M40541 36362
L40541 36081
L40260 36053
L40288 36081
L40316 36137
L40316 36278
L40288 36334
L40260 36362
L40204 36390
L40063 36390
L40007 36362
L39979 36334
L39951 36278
L39951 36137
L39979 36081
L40007 36053
" />
<path d="M40541 36925
L40541 36643
L40260 36615
L40288 36643
L40316 36700
L40316 36840
L40288 36897
L40260 36925
L40204 36953
L40063 36953
L40007 36925
L39979 36897
L39951 36840
L39951 36700
L39979 36643
L40007 36615
" />
<path d="M39979 37234
L39951 37234
L39895 37206
L39866 37178
" />
<path d="M40288 37571
L40316 37515
L40345 37487
L40401 37459
L40429 37459
L40485 37487
L40513 37515
L40541 37571
L40541 37684
L40513 37740
L40485 37768
L40429 37796
L40401 37796
L40345 37768
L40316 37740
L40288 37684
L40288 37571
L40260 37515
L40232 37487
L40176 37459
L40063 37459
L40007 37487
L39979 37515
L39951 37571
L39951 37684
L39979 37740
L40007 37768
L40063 37796
L40176 37796
L40232 37768
L40260 37740
L40288 37684
" />
<path d="M40288 38134
L40316 38078
L40345 38050
L40401 38021
L40429 38021
L40485 38050
L40513 38078
L40541 38134
L40541 38246
L40513 38303
L40485 38331
L40429 38359
L40401 38359
L40345 38331
L40316 38303
L40288 38246
L40288 38134
L40260 38078
L40232 38050
L40176 38021
L40063 38021
L40007 38050
L39979 38078
L39951 38134
L39951 38246
L39979 38303
L40007 38331
L40063 38359
L40176 38359
L40232 38331
L40260 38303
L40288 38246
" />
<path d="M40541 38724
L40541 38781
L40513 38837
L40485 38865
L40429 38893
L40316 38921
L40176 38921
L40063 38893
L40007 38865
L39979 38837
L39951 38781
L39951 38724
L39979 38668
L40007 38640
L40063 38612
L40176 38584
L40316 38584
L40429 38612
L40485 38640
L40513 38668
L40541 38724
" />
<path d="M39951 39624
L40345 39624
" />
<path d="M40288 39624
L40316 39652
L40345 39709
L40345 39793
L40316 39849
L40260 39877
L39951 39877
" />
<path d="M40260 39877
L40316 39906
L40345 39962
L40345 40046
L40316 40102
L40260 40131
L39951 40131
" />
<path d="M39951 40412
L40345 40412
" />
<path d="M40288 40412
L40316 40440
L40345 40496
L40345 40580
L40316 40637
L40260 40665
L39951 40665
" />
<path d="M40260 40665
L40316 40693
L40345 40749
L40345 40834
L40316 40890
L40260 40918
L39951 40918
" />
<path d="M40750 27500
L40750 49500
" />
<path d="M44250 27500
L39687 27500
" />
<path d="M44250 49500
L39687 49500
" />
<path d="M40750 49500
L40519 49056
" />
<path d="M40750 49500
L40980 49056
" />
<path d="M40750 27500
L40519 27943
" />
<path d="M40750 27500
L40980 27943
" />
</g>
<g style="fill:#000000; fill-opacity:0.0; 
stroke:#000000; stroke-width:59.0551; stroke-opacity:1; 
stroke-linecap:round; stroke-linejoin:round;">
<path d="M66250 49500
L66250 27500
" />
<path d="M44250 49500
L66250 49500
" />
<path d="M44250 27500
L44250 49500
" />
<path d="M44250 27500
L66248 27500
" />
</g> 
</svg>
