<?xml version="1.0" standalone="no"?>
 <!DOCTYPE svg PUBLIC "-//W3C//DTD SVG 1.1//EN" 
 "http://www.w3.org/Graphics/SVG/1.1/DTD/svg11.dtd"> 
<svg xmlns="http://www.w3.org/2000/svg" version="1.1" 
    width="29.7002cm" height="21.0007cm" viewBox="0 0 116930 82680 ">
<title>SVG Picture created as TAP-Dwgs.User.svg date 2017/03/29 21:18:00 </title>
  <desc>Picture generated by PCBNEW </desc>
<g style="fill:#000000; fill-opacity:1;stroke:#000000; stroke-opacity:1;
stroke-linecap:round; stroke-linejoin:round; "
 transform="translate(0 0) scale(1 1)">
</g>
<g style="fill:#000000; fill-opacity:0.0; 
stroke:#000000; stroke-width:-0.000393701; stroke-opacity:1; 
stroke-linecap:round; stroke-linejoin:round;">
</g>
<g style="fill:#000000; fill-opacity:0.0; 
stroke:#000000; stroke-width:118.11; stroke-opacity:1; 
stroke-linecap:round; stroke-linejoin:round;">
<path d="M47253 51664
L47281 51636
L47337 51608
L47478 51608
L47534 51636
L47562 51664
L47590 51720
L47590 51776
L47562 51861
L47225 52198
L47590 52198
" />
<path d="M47787 51608
L48181 51608
L47928 52198
" />
<path d="M48434 52170
L48434 52198
L48406 52254
L48378 52283
" />
<path d="M48715 52198
L48828 52198
L48884 52170
L48912 52142
L48968 52058
L48996 51945
L48996 51720
L48968 51664
L48940 51636
L48884 51608
L48771 51608
L48715 51636
L48687 51664
L48659 51720
L48659 51861
L48687 51917
L48715 51945
L48771 51973
L48884 51973
L48940 51945
L48968 51917
L48996 51861
" />
<path d="M49503 51804
L49503 52198
" />
<path d="M49362 51579
L49221 52001
L49587 52001
" />
<path d="M49924 51608
L49981 51608
L50037 51636
L50065 51664
L50093 51720
L50121 51833
L50121 51973
L50093 52086
L50065 52142
L50037 52170
L49981 52198
L49924 52198
L49868 52170
L49840 52142
L49812 52086
L49784 51973
L49784 51833
L49812 51720
L49840 51664
L49868 51636
L49924 51608
" />
<path d="M50824 52198
L50824 51804
" />
<path d="M50824 51861
L50852 51833
L50909 51804
L50993 51804
L51049 51833
L51077 51889
L51077 52198
" />
<path d="M51077 51889
L51106 51833
L51162 51804
L51246 51804
L51302 51833
L51331 51889
L51331 52198
" />
<path d="M51612 52198
L51612 51804
" />
<path d="M51612 51861
L51640 51833
L51696 51804
L51780 51804
L51837 51833
L51865 51889
L51865 52198
" />
<path d="M51865 51889
L51893 51833
L51949 51804
L52034 51804
L52090 51833
L52118 51889
L52118 52198
" />
<path d="M55200 51400
L44200 51400
" />
<path d="M55200 47200
L55200 52462
" />
<path d="M44200 47200
L44200 52462
" />
<path d="M44200 51400
L44643 51169
" />
<path d="M44200 51400
L44643 51630
" />
<path d="M55200 51400
L54756 51169
" />
<path d="M55200 51400
L54756 51630
" />
<path d="M70176 29563
L70176 29676
L70204 29732
L70232 29760
L70317 29816
L70429 29844
L70654 29844
L70710 29816
L70739 29788
L70767 29732
L70767 29619
L70739 29563
L70710 29535
L70654 29507
L70514 29507
L70457 29535
L70429 29563
L70401 29619
L70401 29732
L70429 29788
L70457 29816
L70514 29844
" />
<path d="M70739 29226
L70767 29226
L70823 29254
L70851 29282
" />
<path d="M70176 29029
L70176 28663
L70401 28860
L70401 28776
L70429 28719
L70457 28691
L70514 28663
L70654 28663
L70710 28691
L70739 28719
L70767 28776
L70767 28944
L70739 29001
L70710 29029
" />
<path d="M70176 28129
L70176 28410
L70457 28438
L70429 28410
L70401 28354
L70401 28213
L70429 28157
L70457 28129
L70514 28101
L70654 28101
L70710 28129
L70739 28157
L70767 28213
L70767 28354
L70739 28410
L70710 28438
" />
<path d="M70176 27735
L70176 27679
L70204 27623
L70232 27595
L70289 27566
L70401 27538
L70542 27538
L70654 27566
L70710 27595
L70739 27623
L70767 27679
L70767 27735
L70739 27791
L70710 27820
L70654 27848
L70542 27876
L70401 27876
L70289 27848
L70232 27820
L70204 27791
L70176 27735
" />
<path d="M70767 26892
L70373 26582
" />
<path d="M70373 26892
L70767 26582
" />
<path d="M70176 25204
L70176 25317
L70204 25373
L70232 25401
L70317 25457
L70429 25485
L70654 25485
L70710 25457
L70739 25429
L70767 25373
L70767 25260
L70739 25204
L70710 25176
L70654 25148
L70514 25148
L70457 25176
L70429 25204
L70401 25260
L70401 25373
L70429 25429
L70457 25457
L70514 25485
" />
<path d="M70710 24895
L70739 24867
L70767 24895
L70739 24923
L70710 24895
L70767 24895
" />
<path d="M70176 24670
L70176 24304
L70401 24501
L70401 24417
L70429 24361
L70457 24332
L70514 24304
L70654 24304
L70710 24332
L70739 24361
L70767 24417
L70767 24586
L70739 24642
L70710 24670
" />
<path d="M70176 23770
L70176 24051
L70457 24079
L70429 24051
L70401 23995
L70401 23854
L70429 23798
L70457 23770
L70514 23742
L70654 23742
L70710 23770
L70739 23798
L70767 23854
L70767 23995
L70739 24051
L70710 24079
" />
<path d="M70176 23376
L70176 23320
L70204 23264
L70232 23236
L70289 23208
L70401 23179
L70542 23179
L70654 23208
L70710 23236
L70739 23264
L70767 23320
L70767 23376
L70739 23433
L70710 23461
L70654 23489
L70542 23517
L70401 23517
L70289 23489
L70232 23461
L70204 23433
L70176 23376
" />
<path d="M70767 22476
L70373 22476
" />
<path d="M70429 22476
L70401 22448
L70373 22392
L70373 22308
L70401 22251
L70457 22223
L70767 22223
" />
<path d="M70457 22223
L70401 22195
L70373 22139
L70373 22055
L70401 21998
L70457 21970
L70767 21970
" />
<path d="M70767 21689
L70373 21689
" />
<path d="M70429 21689
L70401 21661
L70373 21605
L70373 21520
L70401 21464
L70457 21436
L70767 21436
" />
<path d="M70457 21436
L70401 21408
L70373 21352
L70373 21267
L70401 21211
L70457 21183
L70767 21183
" />
<path d="M68500 30000
L68500 27500
" />
<path d="M63750 30000
L69562 30000
" />
<path d="M63750 27500
L69562 27500
" />
<path d="M68500 27500
L68730 27943
" />
<path d="M68500 27500
L68269 27943
" />
<path d="M68500 30000
L68730 29556
" />
<path d="M68500 30000
L68269 29556
" />
<path d="M53112 23145
L52831 23145
L52803 23426
L52831 23398
L52887 23370
L53028 23370
L53084 23398
L53112 23426
L53140 23482
L53140 23623
L53112 23679
L53084 23707
L53028 23735
L52887 23735
L52831 23707
L52803 23679
" />
<path d="M53675 23145
L53393 23145
L53365 23426
L53393 23398
L53450 23370
L53590 23370
L53647 23398
L53675 23426
L53703 23482
L53703 23623
L53675 23679
L53647 23707
L53590 23735
L53450 23735
L53393 23707
L53365 23679
" />
<path d="M53984 23707
L53984 23735
L53956 23791
L53928 23820
" />
<path d="M54321 23398
L54265 23370
L54237 23341
L54209 23285
L54209 23257
L54237 23201
L54265 23173
L54321 23145
L54434 23145
L54490 23173
L54518 23201
L54546 23257
L54546 23285
L54518 23341
L54490 23370
L54434 23398
L54321 23398
L54265 23426
L54237 23454
L54209 23510
L54209 23623
L54237 23679
L54265 23707
L54321 23735
L54434 23735
L54490 23707
L54518 23679
L54546 23623
L54546 23510
L54518 23454
L54490 23426
L54434 23398
" />
<path d="M54884 23398
L54828 23370
L54800 23341
L54771 23285
L54771 23257
L54800 23201
L54828 23173
L54884 23145
L54996 23145
L55053 23173
L55081 23201
L55109 23257
L55109 23285
L55081 23341
L55053 23370
L54996 23398
L54884 23398
L54828 23426
L54800 23454
L54771 23510
L54771 23623
L54800 23679
L54828 23707
L54884 23735
L54996 23735
L55053 23707
L55081 23679
L55109 23623
L55109 23510
L55081 23454
L55053 23426
L54996 23398
" />
<path d="M55474 23145
L55531 23145
L55587 23173
L55615 23201
L55643 23257
L55671 23370
L55671 23510
L55643 23623
L55615 23679
L55587 23707
L55531 23735
L55474 23735
L55418 23707
L55390 23679
L55362 23623
L55334 23510
L55334 23370
L55362 23257
L55390 23201
L55418 23173
L55474 23145
" />
<path d="M56374 23735
L56374 23341
" />
<path d="M56374 23398
L56402 23370
L56459 23341
L56543 23341
L56599 23370
L56627 23426
L56627 23735
" />
<path d="M56627 23426
L56656 23370
L56712 23341
L56796 23341
L56852 23370
L56881 23426
L56881 23735
" />
<path d="M57162 23735
L57162 23341
" />
<path d="M57162 23398
L57190 23370
L57246 23341
L57330 23341
L57387 23370
L57415 23426
L57415 23735
" />
<path d="M57415 23426
L57443 23370
L57499 23341
L57584 23341
L57640 23370
L57668 23426
L57668 23735
" />
<path d="M44250 24000
L66250 24000
" />
<path d="M44250 27500
L44250 22937
" />
<path d="M66250 27500
L66250 22937
" />
<path d="M66250 24000
L65806 24230
" />
<path d="M66250 24000
L65806 23769
" />
<path d="M44250 24000
L44693 24230
" />
<path d="M44250 24000
L44693 23769
" />
<path d="M40541 36362
L40541 36081
L40260 36053
L40288 36081
L40316 36137
L40316 36278
L40288 36334
L40260 36362
L40204 36390
L40063 36390
L40007 36362
L39979 36334
L39951 36278
L39951 36137
L39979 36081
L40007 36053
" />
<path d="M40541 36925
L40541 36643
L40260 36615
L40288 36643
L40316 36700
L40316 36840
L40288 36897
L40260 36925
L40204 36953
L40063 36953
L40007 36925
L39979 36897
L39951 36840
L39951 36700
L39979 36643
L40007 36615
" />
<path d="M39979 37234
L39951 37234
L39895 37206
L39866 37178
" />
<path d="M40288 37571
L40316 37515
L40345 37487
L40401 37459
L40429 37459
L40485 37487
L40513 37515
L40541 37571
L40541 37684
L40513 37740
L40485 37768
L40429 37796
L40401 37796
L40345 37768
L40316 37740
L40288 37684
L40288 37571
L40260 37515
L40232 37487
L40176 37459
L40063 37459
L40007 37487
L39979 37515
L39951 37571
L39951 37684
L39979 37740
L40007 37768
L40063 37796
L40176 37796
L40232 37768
L40260 37740
L40288 37684
" />
<path d="M40288 38134
L40316 38078
L40345 38050
L40401 38021
L40429 38021
L40485 38050
L40513 38078
L40541 38134
L40541 38246
L40513 38303
L40485 38331
L40429 38359
L40401 38359
L40345 38331
L40316 38303
L40288 38246
L40288 38134
L40260 38078
L40232 38050
L40176 38021
L40063 38021
L40007 38050
L39979 38078
L39951 38134
L39951 38246
L39979 38303
L40007 38331
L40063 38359
L40176 38359
L40232 38331
L40260 38303
L40288 38246
" />
<path d="M40541 38724
L40541 38781
L40513 38837
L40485 38865
L40429 38893
L40316 38921
L40176 38921
L40063 38893
L40007 38865
L39979 38837
L39951 38781
L39951 38724
L39979 38668
L40007 38640
L40063 38612
L40176 38584
L40316 38584
L40429 38612
L40485 38640
L40513 38668
L40541 38724
" />
<path d="M39951 39624
L40345 39624
" />
<path d="M40288 39624
L40316 39652
L40345 39709
L40345 39793
L40316 39849
L40260 39877
L39951 39877
" />
<path d="M40260 39877
L40316 39906
L40345 39962
L40345 40046
L40316 40102
L40260 40131
L39951 40131
" />
<path d="M39951 40412
L40345 40412
" />
<path d="M40288 40412
L40316 40440
L40345 40496
L40345 40580
L40316 40637
L40260 40665
L39951 40665
" />
<path d="M40260 40665
L40316 40693
L40345 40749
L40345 40834
L40316 40890
L40260 40918
L39951 40918
" />
<path d="M40750 27500
L40750 49500
" />
<path d="M44250 27500
L39687 27500
" />
<path d="M44250 49500
L39687 49500
" />
<path d="M40750 49500
L40519 49056
" />
<path d="M40750 49500
L40980 49056
" />
<path d="M40750 27500
L40519 27943
" />
<path d="M40750 27500
L40980 27943
" />
</g> 
</svg>
