<?xml version="1.0" standalone="no"?>
 <!DOCTYPE svg PUBLIC "-//W3C//DTD SVG 1.1//EN" 
 "http://www.w3.org/Graphics/SVG/1.1/DTD/svg11.dtd"> 
<svg xmlns="http://www.w3.org/2000/svg" version="1.1" 
    width="29.7002cm" height="21.0007cm" viewBox="0 0 116930 82680 ">
<title>SVG Picture created as TAP-NPTH-drl_map.svg date 2017/03/29 21:00:41 </title>
  <desc>Picture generated by PCBNEW </desc>
<g style="fill:#000000; fill-opacity:1;stroke:#000000; stroke-opacity:1;
stroke-linecap:round; stroke-linejoin:round; "
 transform="translate(0 0) scale(1 1)">
</g>
<g style="fill:#000000; fill-opacity:0.0; 
stroke:#000000; stroke-width:-0.000393701; stroke-opacity:1; 
stroke-linecap:round; stroke-linejoin:round;">
</g>
<g style="fill:#000000; fill-opacity:0.0; 
stroke:#000000; stroke-width:59.0551; stroke-opacity:1; 
stroke-linecap:round; stroke-linejoin:round;">
<path d="M66250 49500
L66250 27500
" />
<path d="M44250 49500
L66250 49500
" />
<path d="M44250 27500
L44250 49500
" />
<path d="M44250 27500
L66248 27500
" />
</g>
<g style="fill:#000000; fill-opacity:0.0; 
stroke:#000000; stroke-width:78.7402; stroke-opacity:1; 
stroke-linecap:round; stroke-linejoin:round;">
<path d="M46061 29311
L47438 30688
" />
<path d="M47438 29311
L46061 30688
" />
<path d="M54511 46511
L55888 47888
" />
<path d="M55888 46511
L54511 47888
" />
<path d="M63061 29311
L64438 30688
" />
<path d="M64438 29311
L63061 30688
" />
</g>
<g style="fill:#000000; fill-opacity:0.0; 
stroke:#000000; stroke-width:118.11; stroke-opacity:1; 
stroke-linecap:round; stroke-linejoin:round;">
<path d="M45289 51363
L45289 50181
L45570 50181
L45739 50238
L45851 50350
L45907 50463
L45964 50688
L45964 50856
L45907 51081
L45851 51194
L45739 51306
L45570 51363
L45289 51363
" />
<path d="M46470 51363
L46470 50575
" />
<path d="M46470 50800
L46526 50688
L46582 50631
L46695 50575
L46807 50575
" />
<path d="M47201 51363
L47201 50575
" />
<path d="M47201 50181
L47145 50238
L47201 50294
L47257 50238
L47201 50181
L47201 50294
" />
<path d="M47932 51363
L47820 51306
L47763 51194
L47763 50181
" />
<path d="M48551 51363
L48438 51306
L48382 51194
L48382 50181
" />
<path d="M49901 51363
L49901 50181
L50294 51025
L50688 50181
L50688 51363
" />
<path d="M51757 51363
L51757 50744
L51700 50631
L51588 50575
L51363 50575
L51250 50631
" />
<path d="M51757 51306
L51644 51363
L51363 51363
L51250 51306
L51194 51194
L51194 51081
L51250 50969
L51363 50913
L51644 50913
L51757 50856
" />
<path d="M52319 50575
L52319 51756
" />
<path d="M52319 50631
L52431 50575
L52656 50575
L52769 50631
L52825 50688
L52881 50800
L52881 51138
L52825 51250
L52769 51306
L52656 51363
L52431 51363
L52319 51306
" />
<path d="M53388 51250
L53444 51306
L53388 51363
L53331 51306
L53388 51250
L53388 51363
" />
<path d="M53388 50631
L53444 50688
L53388 50744
L53331 50688
L53388 50631
L53388 50744
" />
<path d="M42842 52620
L44220 53998
" />
<path d="M44220 52620
L42842 53998
" />
<path d="M45176 52662
L45907 52662
L45514 53112
L45682 53112
L45795 53168
L45851 53224
L45907 53337
L45907 53618
L45851 53730
L45795 53787
L45682 53843
L45345 53843
L45232 53787
L45176 53730
" />
<path d="M46413 53730
L46470 53787
L46413 53843
L46357 53787
L46413 53730
L46413 53843
" />
<path d="M47538 52662
L46976 52662
L46920 53224
L46976 53168
L47088 53112
L47370 53112
L47482 53168
L47538 53224
L47595 53337
L47595 53618
L47538 53730
L47482 53787
L47370 53843
L47088 53843
L46976 53787
L46920 53730
" />
<path d="M48326 52662
L48438 52662
L48551 52718
L48607 52774
L48663 52887
L48719 53112
L48719 53393
L48663 53618
L48607 53730
L48551 53787
L48438 53843
L48326 53843
L48213 53787
L48157 53730
L48101 53618
L48044 53393
L48044 53112
L48101 52887
L48157 52774
L48213 52718
L48326 52662
" />
<path d="M49226 53843
L49226 53055
" />
<path d="M49226 53168
L49282 53112
L49394 53055
L49563 53055
L49676 53112
L49732 53224
L49732 53843
" />
<path d="M49732 53224
L49788 53112
L49901 53055
L50069 53055
L50182 53112
L50238 53224
L50238 53843
" />
<path d="M50800 53843
L50800 53055
" />
<path d="M50800 53168
L50857 53112
L50969 53055
L51138 53055
L51250 53112
L51307 53224
L51307 53843
" />
<path d="M51307 53224
L51363 53112
L51475 53055
L51644 53055
L51757 53112
L51813 53224
L51813 53843
" />
<path d="M54119 52606
L53106 54124
" />
<path d="M55637 52662
L55750 52662
L55862 52718
L55919 52774
L55975 52887
L56031 53112
L56031 53393
L55975 53618
L55919 53730
L55862 53787
L55750 53843
L55637 53843
L55525 53787
L55469 53730
L55412 53618
L55356 53393
L55356 53112
L55412 52887
L55469 52774
L55525 52718
L55637 52662
" />
<path d="M56537 53730
L56593 53787
L56537 53843
L56481 53787
L56537 53730
L56537 53843
" />
<path d="M57718 53843
L57043 53843
" />
<path d="M57381 53843
L57381 52662
L57268 52830
L57156 52943
L57043 52999
" />
<path d="M58112 52662
L58843 52662
L58449 53112
L58618 53112
L58731 53168
L58787 53224
L58843 53337
L58843 53618
L58787 53730
L58731 53787
L58618 53843
L58281 53843
L58168 53787
L58112 53730
" />
<path d="M59518 53168
L59406 53112
L59349 53055
L59293 52943
L59293 52887
L59349 52774
L59406 52718
L59518 52662
L59743 52662
L59856 52718
L59912 52774
L59968 52887
L59968 52943
L59912 53055
L59856 53112
L59743 53168
L59518 53168
L59406 53224
L59349 53280
L59293 53393
L59293 53618
L59349 53730
L59406 53787
L59518 53843
L59743 53843
L59856 53787
L59912 53730
L59968 53618
L59968 53393
L59912 53280
L59856 53224
L59743 53168
" />
<path d="M60418 52662
L60418 52887
" />
<path d="M60868 52662
L60868 52887
" />
<path d="M62611 54293
L62555 54237
L62443 54068
L62386 53955
L62330 53787
L62274 53505
L62274 53280
L62330 52999
L62386 52830
L62443 52718
L62555 52549
L62611 52493
" />
<path d="M62949 52662
L63680 52662
L63286 53112
L63455 53112
L63568 53168
L63624 53224
L63680 53337
L63680 53618
L63624 53730
L63568 53787
L63455 53843
L63118 53843
L63005 53787
L62949 53730
" />
<path d="M65086 53843
L65086 52662
" />
<path d="M65592 53843
L65592 53224
L65536 53112
L65424 53055
L65255 53055
L65142 53112
L65086 53168
" />
<path d="M66323 53843
L66211 53787
L66155 53730
L66098 53618
L66098 53280
L66155 53168
L66211 53112
L66323 53055
L66492 53055
L66605 53112
L66661 53168
L66717 53280
L66717 53618
L66661 53730
L66605 53787
L66492 53843
L66323 53843
" />
<path d="M67392 53843
L67280 53787
L67223 53674
L67223 52662
" />
<path d="M68292 53787
L68179 53843
L67955 53843
L67842 53787
L67786 53674
L67786 53224
L67842 53112
L67955 53055
L68179 53055
L68292 53112
L68348 53224
L68348 53337
L67786 53449
" />
<path d="M68798 53787
L68911 53843
L69136 53843
L69248 53787
L69304 53674
L69304 53618
L69248 53505
L69136 53449
L68967 53449
L68854 53393
L68798 53280
L68798 53224
L68854 53112
L68967 53055
L69136 53055
L69248 53112
" />
<path d="M69698 54293
L69754 54237
L69867 54068
L69923 53955
L69979 53787
L70035 53505
L70035 53280
L69979 52999
L69923 52830
L69867 52718
L69754 52549
L69698 52493
" />
<path d="M71835 54293
L71779 54237
L71667 54068
L71610 53955
L71554 53787
L71498 53505
L71498 53280
L71554 52999
L71610 52830
L71667 52718
L71779 52549
L71835 52493
" />
<path d="M72285 53055
L72285 53843
" />
<path d="M72285 53168
L72341 53112
L72454 53055
L72623 53055
L72735 53112
L72791 53224
L72791 53843
" />
<path d="M73523 53843
L73410 53787
L73354 53730
L73298 53618
L73298 53280
L73354 53168
L73410 53112
L73523 53055
L73691 53055
L73804 53112
L73860 53168
L73916 53280
L73916 53618
L73860 53730
L73804 53787
L73691 53843
L73523 53843
" />
<path d="M74254 53055
L74704 53055
" />
<path d="M74422 52662
L74422 53674
L74479 53787
L74591 53843
L74704 53843
" />
<path d="M75997 53055
L75997 54237
" />
<path d="M75997 53112
L76110 53055
L76335 53055
L76447 53112
L76503 53168
L76560 53280
L76560 53618
L76503 53730
L76447 53787
L76335 53843
L76110 53843
L75997 53787
" />
<path d="M77235 53843
L77122 53787
L77066 53674
L77066 52662
" />
<path d="M78191 53843
L78191 53224
L78134 53112
L78022 53055
L77797 53055
L77685 53112
" />
<path d="M78191 53787
L78078 53843
L77797 53843
L77685 53787
L77628 53674
L77628 53562
L77685 53449
L77797 53393
L78078 53393
L78191 53337
" />
<path d="M78584 53055
L79034 53055
" />
<path d="M78753 52662
L78753 53674
L78809 53787
L78922 53843
L79034 53843
" />
<path d="M79878 53787
L79766 53843
L79541 53843
L79428 53787
L79372 53674
L79372 53224
L79428 53112
L79541 53055
L79766 53055
L79878 53112
L79934 53224
L79934 53337
L79372 53449
" />
<path d="M80947 53843
L80947 52662
" />
<path d="M80947 53787
L80834 53843
L80609 53843
L80497 53787
L80440 53730
L80384 53618
L80384 53280
L80440 53168
L80497 53112
L80609 53055
L80834 53055
L80947 53112
" />
<path d="M81397 54293
L81453 54237
L81565 54068
L81622 53955
L81678 53787
L81734 53505
L81734 53280
L81678 52999
L81622 52830
L81565 52718
L81453 52549
L81397 52493
" />
</g> 
</svg>
