<?xml version="1.0" standalone="no"?>
 <!DOCTYPE svg PUBLIC "-//W3C//DTD SVG 1.1//EN" 
 "http://www.w3.org/Graphics/SVG/1.1/DTD/svg11.dtd"> 
<svg xmlns="http://www.w3.org/2000/svg" version="1.1" 
    width="29.7002cm" height="21.0007cm" viewBox="0 0 116930 82680 ">
<title>SVG Picture created as TAP-F.SilkS.svg date 2017/03/29 21:00:53 </title>
  <desc>Picture generated by PCBNEW </desc>
<g style="fill:#000000; fill-opacity:1;stroke:#000000; stroke-opacity:1;
stroke-linecap:round; stroke-linejoin:round; "
 transform="translate(0 0) scale(1 1)">
</g>
<g style="fill:#000000; fill-opacity:0.0; 
stroke:#000000; stroke-width:-0.000393701; stroke-opacity:1; 
stroke-linecap:round; stroke-linejoin:round;">
</g>
<g style="fill:#000000; fill-opacity:0.0; 
stroke:#000000; stroke-width:59.0551; stroke-opacity:1; 
stroke-linecap:round; stroke-linejoin:round;">
<path d="M45045 41354
L45049 49787
" />
<path d="M51041 41354
L51053 49783
" />
<path d="M45045 49787
L51049 49787
" />
<path d="M45045 41362
L51049 41362
" />
<path d="M58204 35645
L58200 27212
" />
<path d="M52208 35645
L52196 27216
" />
<path d="M58204 27212
L52200 27212
" />
<path d="M58204 35637
L52200 35637
" />
<path d="M59545 41354
L59549 49787
" />
<path d="M65541 41354
L65553 49783
" />
<path d="M59545 49787
L65549 49787
" />
<path d="M59545 41362
L65549 41362
" />
</g>
<g style="fill:#000000; fill-opacity:0.0; 
stroke:#000000; stroke-width:39.3701; stroke-opacity:1; 
stroke-linecap:round; stroke-linejoin:round;">
<circle cx="45750" cy="45500" r="620.079" /> 
<circle cx="50250" cy="45500" r="620.079" /> 
<circle cx="47750" cy="42000" r="275.591" /> 
<circle cx="46750" cy="42000" r="275.591" /> 
<circle cx="48750" cy="42000" r="275.591" /> 
<circle cx="49750" cy="42000" r="275.591" /> 
<polyline fill="none;"
points="45974,43275
45974,42724
46525,42724
46525,43275
45974,43275
" /> 
<circle cx="47250" cy="43000" r="275.591" /> 
<circle cx="48250" cy="43000" r="275.591" /> 
<circle cx="49250" cy="43000" r="275.591" /> 
<circle cx="45045.3" cy="44200.8" r="480.315" /> 
<circle cx="51049.2" cy="44200.8" r="480.315" /> 
<circle cx="57500" cy="31500" r="620.079" /> 
<circle cx="53000" cy="31500" r="620.079" /> 
<circle cx="55500" cy="35000" r="275.591" /> 
<circle cx="56500" cy="35000" r="275.591" /> 
<circle cx="54500" cy="35000" r="275.591" /> 
<circle cx="53500" cy="35000" r="275.591" /> 
<polyline fill="none;"
points="57275,33724
57275,34275
56724,34275
56724,33724
57275,33724
" /> 
<circle cx="56000" cy="34000" r="275.591" /> 
<circle cx="55000" cy="34000" r="275.591" /> 
<circle cx="54000" cy="34000" r="275.591" /> 
<circle cx="58204.7" cy="32799.2" r="480.315" /> 
<circle cx="52200.8" cy="32799.2" r="480.315" /> 
<circle cx="60250" cy="45500" r="620.079" /> 
<circle cx="64750" cy="45500" r="620.079" /> 
<circle cx="62250" cy="42000" r="275.591" /> 
<circle cx="61250" cy="42000" r="275.591" /> 
<circle cx="63250" cy="42000" r="275.591" /> 
<circle cx="64250" cy="42000" r="275.591" /> 
<polyline fill="none;"
points="60474,43275
60474,42724
61025,42724
61025,43275
60474,43275
" /> 
<circle cx="61750" cy="43000" r="275.591" /> 
<circle cx="62750" cy="43000" r="275.591" /> 
<circle cx="63750" cy="43000" r="275.591" /> 
<circle cx="59545.3" cy="44200.8" r="480.315" /> 
<circle cx="65549.2" cy="44200.8" r="480.315" /> 
</g>
<g style="fill:#000000; fill-opacity:0.0; 
stroke:#000000; stroke-width:59.0551; stroke-opacity:1; 
stroke-linecap:round; stroke-linejoin:round;">
<path d="M47929 50544
L47929 50825
L47911 50881
L47873 50919
L47817 50937
L47779 50937
" />
<path d="M48323 50937
L48098 50937
" />
<path d="M48211 50937
L48211 50544
L48173 50600
L48136 50637
L48098 50656
" />
<path d="M55057 26024
L55057 26305
L55038 26362
L55001 26399
L54945 26418
L54907 26418
" />
<path d="M55226 26062
L55245 26043
L55282 26024
L55376 26024
L55413 26043
L55432 26062
L55451 26099
L55451 26137
L55432 26193
L55207 26418
L55451 26418
" />
<path d="M62429 50544
L62429 50825
L62411 50881
L62373 50919
L62317 50937
L62279 50937
" />
<path d="M62579 50544
L62823 50544
L62692 50694
L62748 50694
L62785 50712
L62804 50731
L62823 50769
L62823 50862
L62804 50900
L62785 50919
L62748 50937
L62636 50937
L62598 50919
L62579 50900
" />
<path d="M63225 28406
L63093 28218
" />
<path d="M63000 28406
L63000 28012
L63150 28012
L63187 28031
L63206 28050
L63225 28087
L63225 28143
L63206 28181
L63187 28200
L63150 28218
L63000 28218
" />
<path d="M63393 28200
L63525 28200
" />
<path d="M63581 28406
L63393 28406
L63393 28012
L63581 28012
" />
<path d="M63881 28200
L63750 28200
" />
<path d="M63750 28406
L63750 28012
L63937 28012
" />
<path d="M64143 28012
L64143 28106
" />
<path d="M64049 28068
L64143 28106
L64237 28068
" />
<path d="M64087 28181
L64143 28106
L64199 28181
" />
<path d="M64443 28012
L64443 28106
" />
<path d="M64349 28068
L64443 28106
L64537 28068
" />
<path d="M64387 28181
L64443 28106
L64499 28181
" />
<path d="M46225 28406
L46093 28218
" />
<path d="M46000 28406
L46000 28012
L46150 28012
L46187 28031
L46206 28050
L46225 28087
L46225 28143
L46206 28181
L46187 28200
L46150 28218
L46000 28218
" />
<path d="M46393 28200
L46525 28200
" />
<path d="M46581 28406
L46393 28406
L46393 28012
L46581 28012
" />
<path d="M46881 28200
L46750 28200
" />
<path d="M46750 28406
L46750 28012
L46937 28012
" />
<path d="M47143 28012
L47143 28106
" />
<path d="M47049 28068
L47143 28106
L47237 28068
" />
<path d="M47087 28181
L47143 28106
L47199 28181
" />
<path d="M47443 28012
L47443 28106
" />
<path d="M47349 28068
L47443 28106
L47537 28068
" />
<path d="M47387 28181
L47443 28106
L47499 28181
" />
<path d="M54675 45606
L54543 45418
" />
<path d="M54450 45606
L54450 45212
L54600 45212
L54637 45231
L54656 45250
L54675 45287
L54675 45343
L54656 45381
L54637 45400
L54600 45418
L54450 45418
" />
<path d="M54843 45400
L54975 45400
" />
<path d="M55031 45606
L54843 45606
L54843 45212
L55031 45212
" />
<path d="M55331 45400
L55200 45400
" />
<path d="M55200 45606
L55200 45212
L55387 45212
" />
<path d="M55593 45212
L55593 45306
" />
<path d="M55499 45268
L55593 45306
L55687 45268
" />
<path d="M55537 45381
L55593 45306
L55649 45381
" />
<path d="M55893 45212
L55893 45306
" />
<path d="M55799 45268
L55893 45306
L55987 45268
" />
<path d="M55837 45381
L55893 45306
L55949 45381
" />
</g> 
</svg>
