M48
;DRILL file {KiCad 4.0.2-stable} date 29/03/2017 21:00:45
;FORMAT={-:-/ absolute / metric / decimal}
FMAT,2
METRIC,TZ
T1C0.900
T2C1.570
T3C3.000
%
G90
G05
M71
T1
X117.475Y-109.22
X118.745Y-106.68
X120.015Y-109.22
X120.65Y-96.52
X121.285Y-106.68
X122.555Y-109.22
X123.825Y-106.68
X125.095Y-109.22
X126.365Y-106.68
X132.08Y-92.71
X133.35Y-99.06
X133.35Y-101.6
X133.35Y-104.14
X135.89Y-88.9
X135.89Y-92.71
X137.16Y-86.36
X137.16Y-96.52
X138.43Y-88.9
X138.43Y-93.98
X138.43Y-104.14
X139.7Y-86.36
X140.97Y-88.9
X140.97Y-96.52
X140.97Y-101.6
X142.24Y-86.36
X142.24Y-109.22
X143.51Y-88.9
X143.51Y-99.06
X144.78Y-86.36
X146.05Y-93.98
X146.05Y-96.52
X146.05Y-109.22
X154.305Y-109.22
X155.575Y-106.68
X156.845Y-109.22
X158.115Y-106.68
X159.385Y-109.22
X160.655Y-106.68
X161.925Y-109.22
X163.195Y-106.68
T2
X114.415Y-112.27
X129.665Y-112.27
X132.59Y-83.31
X147.84Y-83.31
X151.245Y-112.27
X166.495Y-112.27
T3
X116.205Y-115.57
X127.635Y-115.57
X134.62Y-80.01
X146.05Y-80.01
X153.035Y-115.57
X164.465Y-115.57
T0
M30
